<svg xmlns="http://www.w3.org/2000/svg" width="1117.797" height="961.442" viewBox="0 0 1117.797 961.442">
  <g id="Mobile_UI-UX-rafiki" data-name="Mobile UI-UX-rafiki" transform="translate(131.074 10.89)">
    <g id="freepik--background-simple--inject-210" transform="translate(-131.074 -10.89)">
      <g id="Group_3" data-name="Group 3" transform="translate(0)">
        <path id="Path_11" data-name="Path 11" d="M1184.8,322.192c-15.165-62.124-46.093-121.553-93.839-173.666C1034.692,87.105,947.654,25.212,835.736,47.518,629.117,88.7,628.483,257.282,488.488,227.721c-158.574-33.484-343.272-2.515-391.577,169.962C5.161,725.277,584.758,1101.09,897.167,981.639c194.491-74.366,368.156-329.582,287.638-659.448Z" transform="translate(-87.184 -42.867)" fill="#2a9f4b"/>
        <path id="Path_12" data-name="Path 12" d="M1184.8,322.192c-15.165-62.124-46.093-121.553-93.839-173.666C1034.692,87.105,947.654,25.212,835.736,47.518,629.117,88.7,628.483,257.282,488.488,227.721c-158.574-33.484-343.272-2.515-391.577,169.962C5.161,725.277,584.758,1101.09,897.167,981.639c194.491-74.366,368.156-329.582,287.638-659.448Z" transform="translate(-87.184 -42.867)" fill="#fff" opacity="0.9"/>
      </g>
    </g>
    <g id="freepik--Shadow--inject-210" transform="translate(63.409 804.712)">
      <path id="Path_13" data-name="Path 13" d="M858.908,464.264c0,15.21-180.89,27.539-404.03,27.539s-404.03-12.33-404.03-27.539,180.89-27.54,404.03-27.54S858.908,449.054,858.908,464.264Z" transform="translate(-50.848 -436.725)" fill="#f5f5f5"/>
    </g>
    <g id="freepik--Text--inject-210" transform="translate(760.999 513.223)">
      <g id="Group_5" data-name="Group 5">
        <rect id="Rectangle_17" data-name="Rectangle 17" width="74.104" height="74.104" rx="8.785" fill="#2a9f4b"/>
        <rect id="Rectangle_18" data-name="Rectangle 18" width="74.104" height="74.104" rx="8.785" fill="#fff" opacity="0.5"/>
        <g id="Group_4" data-name="Group 4" transform="translate(8.392 20.055)">
          <path id="Path_14" data-name="Path 14" d="M437.942,319.514H427.3l-1.88,4.879h-9.6L428.062,296.4h9.279l12.239,27.995h-9.758Zm-2.6-6.8-2.72-7.038-2.72,7.038Z" transform="translate(-415.825 -296.399)" fill="#2a9f4b"/>
          <path id="Path_15" data-name="Path 15" d="M456.078,309.872v11.759h-8.4v-2.879c-1.039,2.2-3.119,3.279-6.2,3.279-5.359,0-8.119-3.039-8.119-6.8,0-4.239,3.2-6.6,10-6.6H447c-.281-1.679-1.56-2.56-4.12-2.56a9.86,9.86,0,0,0-5.6,1.721l-2.881-5.96a19.849,19.849,0,0,1,9.84-2.48c7.518,0,11.838,3.24,11.838,10.518Zm-9.039,4.639v-1.519H444.8c-1.919,0-2.76.64-2.76,1.84,0,1,.8,1.759,2.161,1.759a2.859,2.859,0,0,0,2.839-2.08Z" transform="translate(-399.442 -293.637)" fill="#2a9f4b"/>
        </g>
      </g>
    </g>
    <g id="freepik--Image--inject-210" transform="translate(690.106 429.709)">
      <g id="Group_6" data-name="Group 6">
        <rect id="Rectangle_19" data-name="Rectangle 19" width="86.983" height="75.851" rx="5.05" fill="#2a9f4b"/>
        <rect id="Rectangle_20" data-name="Rectangle 20" width="86.983" height="75.851" rx="5.05" fill="#fff" opacity="0.6"/>
        <path id="Path_16" data-name="Path 16" d="M441.4,261.841l-20.475,16.029-12.671-7.519a6.534,6.534,0,0,0-7.443.539L374.886,291.86h0a10.271,10.271,0,0,0,10.254,10.456l66.339.1A10.414,10.414,0,0,0,461.775,292V268.6l-12.949-7.316A6.7,6.7,0,0,0,441.4,261.841Z" transform="translate(-374.793 -226.449)" fill="#2a9f4b"/>
        <path id="Path_17" data-name="Path 17" d="M413.108,259.4a9.185,9.185,0,1,1-9.183-9.4,9.294,9.294,0,0,1,9.183,9.4Z" transform="translate(-356.239 -236.178)" fill="#2a9f4b"/>
      </g>
    </g>
    <g id="freepik--Colors--inject-210" transform="translate(719.612 447.953)">
      <rect id="Rectangle_21" data-name="Rectangle 21" width="23.283" height="23.283" transform="translate(0 72.138)" fill="#2a9f4b"/>
      <rect id="Rectangle_22" data-name="Rectangle 22" width="23.283" height="23.283" transform="translate(0 100.82)" fill="#263238"/>
      <g id="Group_7" data-name="Group 7" transform="translate(70.218)">
        <rect id="Rectangle_23" data-name="Rectangle 23" width="23.283" height="23.283" fill="#2a9f4b"/>
        <rect id="Rectangle_24" data-name="Rectangle 24" width="23.283" height="23.283" fill="#fff" opacity="0.8"/>
      </g>
    </g>
    <g id="freepik--Speech_Bubble--inject-210" transform="translate(164.203 132.411)">
      <g id="Group_10" data-name="Group 10">
        <g id="Group_9" data-name="Group 9">
          <path id="Path_18" data-name="Path 18" d="M115.824,101.955a38.635,38.635,0,1,1,14.857,61.867l-10.32,5.305L119.2,156.92c-.162-.141-.337-.26-.5-.4a38.635,38.635,0,0,1-2.882-54.562Z" transform="translate(-100.196 -89.159)" fill="#2a9f4b"/>
          <g id="Group_8" data-name="Group 8" transform="translate(5.715)" opacity="0.3">
            <path id="Path_19" data-name="Path 19" d="M115.824,101.955a38.635,38.635,0,1,1,14.857,61.867l-10.32,5.305L119.2,156.92c-.162-.141-.337-.26-.5-.4a38.635,38.635,0,0,1-2.882-54.562Z" transform="translate(-105.911 -89.159)" fill="#fff"/>
          </g>
          <path id="Path_20" data-name="Path 20" d="M122.3,90.458a38.3,38.3,0,0,0-19.2,30.6" transform="translate(-102.831 -87.946)" fill="none" stroke="#2a9f4b" stroke-linecap="round" stroke-linejoin="round" stroke-width="0.5"/>
          <path id="Path_21" data-name="Path 21" d="M103.079,109.255a13.979,13.979,0,0,0,.415,5.692" transform="translate(-102.956 -70.383)" fill="none" stroke="#2a9f4b" stroke-linecap="round" stroke-linejoin="round" stroke-width="0.5"/>
        </g>
        <path id="Path_22" data-name="Path 22" d="M133.018,130.843,116.71,115.96l5.194-5.691,10.937,9.979L151.009,102.5l5.383,5.511Z" transform="translate(-90.106 -76.69)" fill="#fff"/>
      </g>
    </g>
    <g id="freepik--Character_1--inject-210" transform="translate(37.404 232.669)">
      <g id="Group_20" data-name="Group 20">
        <g id="Group_12" data-name="Group 12" transform="translate(183.274 85.657)">
          <g id="Group_11" data-name="Group 11" transform="translate(88.086 0.618)">
            <path id="Path_23" data-name="Path 23" d="M179.142,209.708s-2.432-4.8-1-9.013,1.458-7.958,2.74-11.016,2.671,1.2,2.951,3.61.623,5.145,2.4,4.641,12.891-11.871,15.437-12.288S203,187.624,203,187.624s2.773-2.688,4.138-1.879c.354.21.838,1.273-.234,2.7-2.411,3.2-7.818,9.66-7.818,9.66.3-.377,7.546-7.872,8.777-8.853,1.61-1.282,3.022-1.066,3.735-.109,1.015,1.363-7.649,10.961-7.731,11.622,0,0,4.8-5.693,6.951-5.257s-.68,4.184-3.8,7.016c-2.861,2.6-7.8,8.437-10.96,10.794-3.9,2.9-7.171,3.978-11.162,1.775a15.484,15.484,0,0,1-5.747-5.38Z" transform="translate(-177.691 -185.593)" fill="#e9b376"/>
            <path id="Path_24" data-name="Path 24" d="M193.541,186.789q-3.253,3.315-6.2,6.917" transform="translate(-168.67 -184.475)" fill="none" stroke="#000" stroke-linecap="round" stroke-linejoin="round" stroke-width="0.25" opacity="0.3"/>
            <path id="Path_25" data-name="Path 25" d="M194.483,198.5a20.592,20.592,0,0,0-8.669-8.046" transform="translate(-170.102 -181.054)" fill="none" stroke="#000" stroke-linecap="round" stroke-linejoin="round" stroke-width="0.25" opacity="0.3"/>
            <path id="Path_26" data-name="Path 26" d="M182.477,192.989a7.064,7.064,0,0,1-.416,9.007" transform="translate(-173.608 -178.683)" fill="none" stroke="#000" stroke-linecap="round" stroke-linejoin="round" stroke-width="0.25" opacity="0.3"/>
          </g>
          <path id="Path_27" data-name="Path 27" d="M133.268,185.309s8.3-1.431,22.169,13.721c17.534,19.151,31.711,33.5,31.711,33.5l37.205-26.276,9.219,9.108s-34.712,43.118-43.407,45.42-12.479-.633-18.1-5.236-40.661-39.894-39.894-39.638S133.268,185.309,133.268,185.309Z" transform="translate(-132.153 -185.273)" fill="#ebb373"/>
        </g>
        <path id="Path_28" data-name="Path 28" d="M151.62,442.984c-.126-1.133-4.189-24.788-4.189-24.788l-22.665,5.16,6.4,24.207,15.512,2.619,4.945-7.2Z" transform="translate(44.22 118.007)" fill="#ebb373"/>
        <path id="Path_29" data-name="Path 29" d="M47.721,197c1.142.7,41.43,35.631,41.9,35.4s42.151-33.069,44.713-34.233,15.907,22.124,14.707,22.124-41.01,35.045-57.613,35.977-51.842-53.21-51.842-53.21L47.721,197Z" transform="translate(-35.37 -88.658)" fill="#ebb373"/>
        <path id="Path_30" data-name="Path 30" d="M246.241,420.145l-13.776,11.991-31.516-27.4,13.776-12.01Z" transform="translate(115.399 94.213)" fill="#ebb373"/>
        <g id="Group_13" data-name="Group 13" transform="translate(322.954 504.222)">
          <path id="Path_31" data-name="Path 31" d="M216.822,419.088l5.111-5.152a5.152,5.152,0,0,1,4.44-1.415c7,1.054,7.686-2.7,7.077-9.716,1.8-2.292,4.7-.506,5.5-.045l17.83,10.047a3.1,3.1,0,0,1,.673,4.939l-16.868,17-23.626,23.814c-6.44,6.492-14.317,1.346-12.27-1.928,9.272-14.661,14.181-26.687,14.37-33.874.071-1.3-1.089-1.043-2.243-3.675Z" transform="translate(-204.365 -401.663)" fill="#263238"/>
          <path id="Path_32" data-name="Path 32" d="M211.419,417.919a32.939,32.939,0,0,0,6.628-1.751.4.4,0,0,0-.1-.752c-1.075-.361-10.621-3.388-12.668-1.5a1.327,1.327,0,0,0-.421,1.345,2.962,2.962,0,0,0,1.529,2.189,8.1,8.1,0,0,0,5.03.464Zm5.148-2.107c-2.59.841-7.437,2.144-9.68.885a2.37,2.37,0,0,1-1.117-1.6.522.522,0,0,1,.164-.571C207.065,413.5,212.617,414.656,216.567,415.812Z" transform="translate(-203.942 -390.787)" fill="#2a9f4b"/>
          <path id="Path_33" data-name="Path 33" d="M216.1,418.829a.5.5,0,0,0,.282-.037.4.4,0,0,0,.062-.438c-.049-.376-3.323-8.955-8.182-7.745-1.2.324-1.476.958-1.458,1.457,0,2.389,6.244,6.087,9.093,6.861l.2-.1Zm-7.252-7.58c3.124-.409,5.609,4.522,6.491,6.509-3.139-1.166-7.733-4.316-7.662-5.782-.015-.117-.058-.446.845-.66l.326-.066Z" transform="translate(-202.085 -393.413)" fill="#2a9f4b"/>
          <path id="Path_34" data-name="Path 34" d="M211.026,415.419a8.8,8.8,0,0,1,7.158-1.579" transform="translate(-198.141 -390.473)" fill="none" stroke="#2a9f4b" stroke-linecap="round" stroke-linejoin="round" stroke-width="0.5"/>
          <path id="Path_35" data-name="Path 35" d="M210.63,418.311a8.8,8.8,0,0,1,7.159-1.579" transform="translate(-198.511 -387.771)" fill="none" stroke="#2a9f4b" stroke-linecap="round" stroke-linejoin="round" stroke-width="0.5"/>
          <path id="Path_36" data-name="Path 36" d="M209.634,421.409a8.8,8.8,0,0,1,7.159-1.579" transform="translate(-199.441 -384.876)" fill="none" stroke="#2a9f4b" stroke-linecap="round" stroke-linejoin="round" stroke-width="0.5"/>
        </g>
        <g id="Group_15" data-name="Group 15" transform="translate(3.775 12.585)">
          <g id="Group_14" data-name="Group 14" transform="translate(57.664 503.393)">
            <ellipse id="Ellipse_1" data-name="Ellipse 1" cx="27.675" cy="32.148" rx="27.675" ry="32.148" transform="translate(0 7.017) rotate(-7.283)" fill="#2a9f4b"/>
          </g>
          <path id="Path_37" data-name="Path 37" d="M39.355,207.14,57.743,147.5,94.219,200.13,155.61,680.546l-54.863,7.01Z" transform="translate(-39.355 -147.497)" fill="#2a9f4b"/>
          <path id="Path_38" data-name="Path 38" d="M67.394,154.674c-4.367,4.363-9.2,5.02-14.522,1.9L39.356,200.434s6.311,11.753,13.659-.9c0,0,8.389,10.5,15.644-2,0,0,7.87,8.207,13.647-1.744,0,0,6.786,6.465,11.913-2.365l-26.825-38.75Z" transform="translate(-39.355 -140.791)" fill="#b97964"/>
          <path id="Path_39" data-name="Path 39" d="M54.606,177.694l64.5,479.78,12.772-1.632c1.956-.854-63.626-479.892-63.626-479.892-5.777,9.951-13.647,1.744-13.647,1.744Z" transform="translate(-25.107 -120.914)" fill="#fff" opacity="0.3"/>
          <path id="Path_40" data-name="Path 40" d="M51.435,177.948c-4.051,6.978-7.785,6.532-10.322,4.73L105.164,659.1l12.772-1.632c1.862-.813-57.5-435.124-63.189-476.695a13.82,13.82,0,0,1-3.311-2.828Z" transform="translate(-37.713 -119.046)" fill="#fff" opacity="0.3"/>
          <rect id="Rectangle_25" data-name="Rectangle 25" width="58.582" height="9.454" transform="translate(118.844 538.816) rotate(172.718)" fill="#263238"/>
        </g>
        <g id="Group_16" data-name="Group 16" transform="translate(0 90.631)">
          <path id="Path_41" data-name="Path 41" d="M48.36,211.55s10.727-5.542,11.589-8.756-3.771-2.167-3.771-2.167,5.027-1.466,4.693-3.684c-.4-2.663-5.25-1.543-5.25-1.543s4.055-1.365,3.626-3.318c-.445-2.026-6.008-1.152-6.008-1.152s2.674-1.5,1.607-2.69-12.909.439-15.988,3.248-.521,17.966.816,21.113c.384.9,1.307,2.327,5.77,2.96a1.834,1.834,0,0,0,2.043-1.4l.556-2.445.316-.168Z" transform="translate(-37.404 -187.845)" fill="#ebb373"/>
          <path id="Path_42" data-name="Path 42" d="M51.337,194.328l-.021.006-8.641,2.975a.246.246,0,0,0-.134.312.234.234,0,0,0,.286.168l8.641-2.975a.246.246,0,0,0,.134-.312.235.235,0,0,0-.266-.174Z" transform="translate(-32.617 -181.792)" opacity="0.2"/>
          <path id="Path_43" data-name="Path 43" d="M50.863,191.655h-.006l-8.527,2.2a.254.254,0,0,0,.123.488l8.527-2.2a.241.241,0,0,0,.154-.3.238.238,0,0,0-.271-.191Z" transform="translate(-32.953 -184.289)" opacity="0.2"/>
          <path id="Path_44" data-name="Path 44" d="M48.574,189.348,42.192,190.8a.254.254,0,0,0,.112.491l6.383-1.452a.254.254,0,0,0-.112-.491Z" transform="translate(-33.088 -186.445)" opacity="0.2"/>
        </g>
        <g id="Group_17" data-name="Group 17" transform="translate(135.54 553.969)">
          <path id="Path_45" data-name="Path 45" d="M144.5,429.966h7.257a5.152,5.152,0,0,1,4.131,2.156c4.185,5.715,7.33,3.555,11.882-1.818,2.894-.337,3.673,2.984,3.909,3.876l5.425,19.734a3.1,3.1,0,0,1-3.032,3.956h-57.5c-9.145,0-11.04-9.216-7.273-10.068,16.939-3.743,28.933-8.728,34.168-13.655.971-.863-.027-1.508,1.029-4.18Z" transform="translate(-107.475 -424.966)" fill="#263238"/>
          <path id="Path_46" data-name="Path 46" d="M122.85,435.139a32.951,32.951,0,0,0,5.911,3.471.4.4,0,0,0,.464-.6c-.5-1.017-5.076-9.926-7.86-10.046a1.327,1.327,0,0,0-1.252.648,2.962,2.962,0,0,0-.477,2.627,8.1,8.1,0,0,0,3.213,3.9Zm5.121,2.17c-2.421-1.247-6.76-3.769-7.446-6.249a2.37,2.37,0,0,1,.348-1.918.522.522,0,0,1,.521-.286C122.924,428.933,126.01,433.692,127.971,437.309Z" transform="translate(-96.227 -426.839)" fill="#2a9f4b"/>
          <path id="Path_47" data-name="Path 47" d="M125.426,439.115a.5.5,0,0,0,.225.174.4.4,0,0,0,.355-.264c.232-.3,4.017-8.666-.264-11.263-1.075-.623-1.719-.373-2.061-.009-1.695,1.684.076,8.72,1.533,11.288l.212.075Zm.274-10.487c2.49,1.93.74,7.167-.05,9.192-1.383-3.05-2.382-8.529-1.291-9.512.073-.094.276-.356,1.064.135l.277.185Z" transform="translate(-92.981 -427.381)" fill="#2a9f4b"/>
          <path id="Path_48" data-name="Path 48" d="M124.01,432.861a8.8,8.8,0,0,1,6.163,3.969" transform="translate(-92.027 -422.261)" fill="none" stroke="#2a9f4b" stroke-linecap="round" stroke-linejoin="round" stroke-width="0.5"/>
          <path id="Path_49" data-name="Path 49" d="M121.679,434.616a8.794,8.794,0,0,1,6.163,3.97" transform="translate(-94.205 -420.621)" fill="none" stroke="#2a9f4b" stroke-linecap="round" stroke-linejoin="round" stroke-width="0.5"/>
          <path id="Path_50" data-name="Path 50" d="M118.778,436.092a8.8,8.8,0,0,1,6.163,3.97" transform="translate(-96.915 -419.242)" fill="none" stroke="#2a9f4b" stroke-linecap="round" stroke-linejoin="round" stroke-width="0.5"/>
        </g>
        <g id="Group_18" data-name="Group 18" transform="translate(106.512 83.668)">
          <path id="Path_51" data-name="Path 51" d="M103.842,200.336s-12.829,28.645-11.236,39.878c2.128,15.005,15.04,33.77,27.562,62.3l70.3-10.893C181.928,263.186,175.459,247.3,170.4,184.25a99.472,99.472,0,0,0-25.5,2.676,236.492,236.492,0,0,0-32.3,8.929c-13.561,5-8.753,4.48-8.753,4.48Z" transform="translate(-92.468 -184.241)" fill="#263238"/>
          <path id="Path_52" data-name="Path 52" d="M130.589,185.233s4.532-2.708,11.678.846,28.048,24.212,28.048,24.212-24.935,31.047-25.3,31.047-13.69-18.09-13.69-18.09Z" transform="translate(-56.852 -184.246)" fill="#263238"/>
        </g>
        <path id="Path_53" data-name="Path 53" d="M101.365,228.666l-17.037-19.93s20.895-13.983,26.842-16.234,9.032-2.254,9.032-2.254l-18.836,38.417Z" transform="translate(6.438 -94.968)" fill="#263238"/>
        <g id="Group_19" data-name="Group 19" transform="translate(126.47 181.15)">
          <path id="Path_54" data-name="Path 54" d="M110.527,249.485c-12.083,41.332-8.942,136.6,2,205.328,7.854,62.086,26.68,140.514,26.68,140.514l37.825-5.93s-12.658-101.674-15.7-145.024c-4.121-59.737-4.366-202.084-4.366-202.084l-50.152-1.282,3.708,8.479Z" transform="translate(-102.786 -228.694)" fill="#2a9f4b"/>
          <path id="Path_55" data-name="Path 55" d="M105.059,246.954A289.63,289.63,0,0,1,148.5,313.031c19.2,40.662,32.119,94.031,46.275,126.888,22.411,52.024,104.382,124.713,104.382,124.713l19.369-16.072s-58.559-82.854-74.062-118.139c-49.649-112.957-34.911-160.8-65.761-186.039l-2.911-9.741-70.731,12.313Z" transform="translate(-100.663 -234.642)" fill="#2a9f4b"/>
        </g>
        <path id="Path_56" data-name="Path 56" d="M95.313,167.493a.577.577,0,0,0,.293-.217.534.534,0,0,0-.205-.719,13.182,13.182,0,0,1-3.8-17.091c5.428-10.55,19.1-6.812,19.236-6.786a.534.534,0,1,0,.288-1.015c-.123.035-14.656-4.011-20.483,7.32a14.421,14.421,0,0,0,4.136,18.438.6.6,0,0,0,.531.07Z" transform="translate(10.731 -140.991)" fill="#263238"/>
        <path id="Path_57" data-name="Path 57" d="M97.593,162.676a.555.555,0,0,0,.367-.349.534.534,0,0,0-.343-.657s-6.406-2.124-8.393-6.822a8.76,8.76,0,0,1,.569-7.5.534.534,0,0,0-.194-.73l-.017-.01a.556.556,0,0,0-.739.211,9.828,9.828,0,0,0-.6,8.393c2.184,5.153,8.757,7.318,9.051,7.412a.492.492,0,0,0,.3.047Z" transform="translate(9.469 -135.798)" fill="#263238"/>
        <path id="Path_58" data-name="Path 58" d="M131.135,177.593a12.819,12.819,0,0,0,9.1-7.044.534.534,0,0,0-.205-.719.513.513,0,0,0-.7.177l-.016.028c-3.624,9.168-21.8,7.452-21.983,7.437a.534.534,0,0,0-.594.467l0,.015a.513.513,0,0,0,.445.572l.03,0a41.974,41.974,0,0,0,13.93-.937Z" transform="translate(36.707 -114.114)" fill="#263238"/>
        <path id="Path_59" data-name="Path 59" d="M202.608,173.44a22.956,22.956,0,0,1-11.678,2.474,18.605,18.605,0,0,0,5.045-19.747,30.2,30.2,0,0,1-32.9,1.677c-7.378-4.447-12.8-12.1-20.944-14.915-7.065-2.439-21.737-1.949-23.65,8.5l3.166,7.706c5.42-2.4,13.849,5.879,16.825,11s3.368,11.285,3.964,17.182,1.62,12.119,5.491,16.607c3.359,3.894,8.5,5.936,13.623,6.389s10.266-.54,15.229-1.888c2.043-.555,4.168-1.229,5.626-2.764s1.944-4.2.487-5.734a16.227,16.227,0,0,1-10.457-1.917c7.513.612,15.426-.661,21.579-5.016s10.135-12.177,8.6-19.556Z" transform="translate(38.346 -140.314)" fill="#263238"/>
        <path id="Path_60" data-name="Path 60" d="M92.64,171.542a21.247,21.247,0,0,1,9.086-26.571c6.14-3.951,14.351-4.474,22.208-3.589a35.794,35.794,0,0,1,31.546,33.26c.92,14.149-3.06,29.475-22.971,33.477-39.3,7.9-39.868-36.577-39.868-36.577Z" transform="translate(12.691 -140.97)" fill="#263238"/>
        <path id="Path_61" data-name="Path 61" d="M137.221,202.408s-6.132,5.933-13.935,14.376a32.268,32.268,0,0,1-5.432,4.684c-5.327,3.658-10.3,5.97-12.011,3.4a9.313,9.313,0,0,1-.948-1.852c-1.711-4.442-1.956-10.934,1.409-14.3,3.794-3.8,5.481-6.867,4.217-11.276a33.909,33.909,0,0,0-3.277-7.462l4.488-3.442,15.2-19.286c-.753,10.85.531,29.911,10.292,35.162Z" transform="translate(24.511 -116.46)" fill="#ebb373"/>
        <path id="Path_62" data-name="Path 62" d="M108.5,193.066c4.4-3.342,9.031-8.795,7.777-14.28a26.17,26.17,0,0,0-2.023-5.824l-8.145,13.793A32.2,32.2,0,0,1,108.5,193.066Z" transform="translate(26.786 -111.119)" opacity="0.2"/>
        <path id="Path_63" data-name="Path 63" d="M140.1,168.023c.394,17.827.935,25.345-7.115,35.633-12.109,15.476-33.711,13.2-39.331-3.879C88.6,184.409,88.8,157.838,105.278,148.45,121.51,139.2,139.707,150.2,140.1,168.023Z" transform="translate(12.438 -137.153)" fill="#ebb373"/>
        <path id="Path_64" data-name="Path 64" d="M106.343,162.851c.126,1.876-.71,3.525-1.868,3.681s-2.2-1.238-2.323-3.115.71-3.525,1.867-3.681S106.216,160.975,106.343,162.851Z" transform="translate(23.079 -123.488)" fill="#263238"/>
        <path id="Path_65" data-name="Path 65" d="M97.065,163.809c.118,1.819-.721,3.42-1.875,3.576s-2.186-1.192-2.3-3.011.722-3.42,1.876-3.576S96.947,161.99,97.065,163.809Z" transform="translate(14.423 -122.496)" fill="#263238"/>
        <path id="Path_66" data-name="Path 66" d="M110.067,159.241a.794.794,0,0,1-.65-.13,6.4,6.4,0,0,0-6-.96.8.8,0,0,1-1.083-.472.949.949,0,0,1,.521-1.16,7.994,7.994,0,0,1,7.6,1.124.891.891,0,0,1,.156,1.229A.92.92,0,0,1,110.067,159.241Z" transform="translate(23.217 -126.945)" fill="#263238"/>
        <path id="Path_67" data-name="Path 67" d="M92.506,159.581a.66.66,0,0,1-.447-.339.954.954,0,0,1,.309-1.183c3.774-2.726,6.96-1.344,7.095-1.282a.8.8,0,0,1,.318,1.1.832.832,0,0,1-1.051.482c-.124-.056-2.612-1.087-5.613,1.082a.767.767,0,0,1-.609.142Z" transform="translate(13.571 -126.62)" fill="#263238"/>
        <path id="Path_68" data-name="Path 68" d="M100.522,161.54a60.255,60.255,0,0,1-4.652,11.39,1.371,1.371,0,0,0,.876,2.009,8.789,8.789,0,0,0,4.737-.463Z" transform="translate(17.05 -121.791)" fill="#e4873e"/>
        <path id="Path_69" data-name="Path 69" d="M105.468,159.97l-4.158-.5S103.868,162.242,105.468,159.97Z" transform="translate(22.304 -123.721)" fill="#263238"/>
        <path id="Path_70" data-name="Path 70" d="M96.178,161.029l-4.159-.5S94.578,163.3,96.178,161.029Z" transform="translate(13.624 -122.731)" fill="#263238"/>
        <path id="Path_71" data-name="Path 71" d="M128.778,173.922s-8.2-11.542-3.168-21.416c0,0-33.5-5.509-34.49,26.662,0,0-6.722-29.4,22.883-35.648s37.615,37.259,24.677,53.066c-.009.045-3.322-14.668-9.9-22.664Z" transform="translate(12.17 -139.197)" fill="#263238"/>
        <path id="Path_72" data-name="Path 72" d="M127,168.93a14.29,14.29,0,0,1-7.815,7.647c-4.536,1.7-7.8-5.53-6.743-10.391a9.449,9.449,0,0,1,9.876-7.286C126.9,159.294,128.91,164.521,127,168.93Z" transform="translate(32.516 -124.289)" fill="#ebb373"/>
        <path id="Path_73" data-name="Path 73" d="M114.716,167.423a6.451,6.451,0,0,1,6.122-6.744" transform="translate(34.824 -122.596)" fill="none" stroke="#000" stroke-linecap="round" stroke-linejoin="round" stroke-width="0.5" opacity="0.2"/>
        <path id="Path_74" data-name="Path 74" d="M98.389,174.179a45.927,45.927,0,0,1,3.592,5.417l1.109-.317c4.868-1.858,6.5-4.323,6.878-6.41a6.584,6.584,0,0,0-.323-3.152,6.73,6.73,0,0,0-.781-1.643,24.271,24.271,0,0,1-8.8,5.6C99.034,173.95,98.389,174.179,98.389,174.179Z" transform="translate(19.575 -115.686)" fill="#263238"/>
        <path id="Path_75" data-name="Path 75" d="M99.232,173.591l1.115,1.57c4.566-1.749,7.568-3.607,8.463-5.529a6.734,6.734,0,0,0-.781-1.644,24.271,24.271,0,0,1-8.8,5.6Z" transform="translate(20.363 -115.766)" fill="#fff"/>
        <path id="Path_76" data-name="Path 76" d="M100.807,176.92c4.868-1.858,6.5-4.323,6.878-6.409a16.514,16.514,0,0,0-4.992,3.137A6.239,6.239,0,0,0,100.807,176.92Z" transform="translate(21.834 -113.41)" fill="#c15854"/>
      </g>
    </g>
    <g id="freepik--Device--inject-210" transform="translate(285.996 147.844)">
      <g id="Group_24" data-name="Group 24">
        <path id="Path_77" data-name="Path 77" d="M220.49,97.138H436.623a54.6,54.6,0,0,1,54.569,54.569V715.581a41.6,41.6,0,0,1-41.578,41.578H201.344a35.44,35.44,0,0,1-35.423-35.423V151.707A54.6,54.6,0,0,1,220.49,97.138Z" transform="translate(-165.921 -97.138)" fill="#2a9f4b"/>
        <rect id="Rectangle_26" data-name="Rectangle 26" width="298.999" height="628.976" rx="20.677" transform="translate(13.136 15.523)" fill="#fff"/>
        <rect id="Rectangle_27" data-name="Rectangle 27" width="123.015" height="7.69" transform="translate(96.436 44.853)" fill="none" stroke="#2a9f4b" stroke-miterlimit="10" stroke-width="1"/>
        <g id="Group_21" data-name="Group 21" transform="translate(259.992 37.326)">
          <path id="Path_78" data-name="Path 78" d="M306.219,119.409a2.944,2.944,0,1,1-2.944-2.974A2.959,2.959,0,0,1,306.219,119.409Z" transform="translate(-300.331 -116.435)" fill="#2a9f4b"/>
          <path id="Path_79" data-name="Path 79" d="M306.219,123.321a2.944,2.944,0,1,1-2.944-2.974A2.959,2.959,0,0,1,306.219,123.321Z" transform="translate(-300.331 -112.78)" fill="#2a9f4b"/>
          <path id="Path_80" data-name="Path 80" d="M306.219,127.233a2.944,2.944,0,1,1-2.944-2.974A2.959,2.959,0,0,1,306.219,127.233Z" transform="translate(-300.331 -109.124)" fill="#2a9f4b"/>
        </g>
        <path id="Path_81" data-name="Path 81" d="M200.879,119.049l-5.639,5.416,5.639,5.551" transform="translate(-138.528 -76.666)" fill="none" stroke="#2a9f4b" stroke-linecap="round" stroke-linejoin="round" stroke-width="1"/>
        <rect id="Rectangle_28" data-name="Rectangle 28" width="249.914" height="44.167" transform="translate(38.137 100.2)" fill="none" stroke="#2a9f4b" stroke-miterlimit="10" stroke-width="1"/>
        <path id="Path_82" data-name="Path 82" d="M172.664,137.42H473.1" transform="translate(-159.621 -59.502)" fill="none" stroke="#2a9f4b" stroke-miterlimit="10" stroke-width="1"/>
        <rect id="Rectangle_29" data-name="Rectangle 29" width="249.914" height="126.337" transform="translate(38.137 165.566)" fill="none" stroke="#2a9f4b" stroke-miterlimit="10" stroke-width="1"/>
        <path id="Path_83" data-name="Path 83" d="M185.637,287.735l78.691-63.46a8.483,8.483,0,0,1,9.788-.625l40.965,25.228L368.6,207.526a9.351,9.351,0,0,1,10.74-.5l56.207,35.642" transform="translate(-147.5 4.169)" fill="none" stroke="#2a9f4b" stroke-miterlimit="10" stroke-width="1"/>
        <ellipse id="Ellipse_2" data-name="Ellipse 2" cx="15.652" cy="15.813" rx="15.652" ry="15.813" transform="translate(150.366 186.894)" fill="none" stroke="#2a9f4b" stroke-miterlimit="10" stroke-width="1"/>
        <rect id="Rectangle_30" data-name="Rectangle 30" width="55.559" height="12.846" transform="translate(38.137 310.947)" fill="none" stroke="#2a9f4b" stroke-miterlimit="10" stroke-width="1"/>
        <rect id="Rectangle_31" data-name="Rectangle 31" width="249.914" height="8.564" transform="translate(38.137 338.78)" fill="none" stroke="#2a9f4b" stroke-miterlimit="10" stroke-width="1"/>
        <rect id="Rectangle_32" data-name="Rectangle 32" width="249.914" height="8.564" transform="translate(38.137 358.048)" fill="none" stroke="#2a9f4b" stroke-miterlimit="10" stroke-width="1"/>
        <rect id="Rectangle_33" data-name="Rectangle 33" width="111.405" height="8.564" transform="translate(38.137 377.316)" fill="none" stroke="#2a9f4b" stroke-miterlimit="10" stroke-width="1"/>
        <rect id="Rectangle_34" data-name="Rectangle 34" width="249.914" height="8.564" transform="translate(38.137 534.138)" fill="none" stroke="#2a9f4b" stroke-miterlimit="10" stroke-width="1"/>
        <rect id="Rectangle_35" data-name="Rectangle 35" width="249.914" height="8.564" transform="translate(38.137 553.406)" fill="none" stroke="#2a9f4b" stroke-miterlimit="10" stroke-width="1"/>
        <rect id="Rectangle_36" data-name="Rectangle 36" width="111.405" height="8.564" transform="translate(38.137 572.676)" fill="none" stroke="#2a9f4b" stroke-miterlimit="10" stroke-width="1"/>
        <g id="Group_22" data-name="Group 22" transform="translate(37.737 405.379)">
          <rect id="Rectangle_37" data-name="Rectangle 37" width="105.554" height="106.637" transform="translate(0.346)" fill="none" stroke="#2a9f4b" stroke-miterlimit="10" stroke-width="1"/>
          <line id="Line_3" data-name="Line 3" y1="106.637" x2="105.556" transform="translate(0.346)" fill="none" stroke="#2a9f4b" stroke-miterlimit="10" stroke-width="1"/>
          <line id="Line_4" data-name="Line 4" x1="105.556" y1="106.637" fill="none" stroke="#2a9f4b" stroke-miterlimit="10" stroke-width="1"/>
        </g>
        <g id="Group_23" data-name="Group 23" transform="translate(177.124 406.348)">
          <rect id="Rectangle_38" data-name="Rectangle 38" width="105.554" height="106.637" transform="translate(0.346)" fill="none" stroke="#2a9f4b" stroke-miterlimit="10" stroke-width="1"/>
          <line id="Line_5" data-name="Line 5" y1="106.637" x2="105.554" transform="translate(0.346)" fill="none" stroke="#2a9f4b" stroke-miterlimit="10" stroke-width="1"/>
          <line id="Line_6" data-name="Line 6" x1="105.554" y1="106.637" fill="none" stroke="#2a9f4b" stroke-miterlimit="10" stroke-width="1"/>
        </g>
      </g>
    </g>
    <g id="freepik--Character_2--inject-210" transform="translate(568.442 471.636)">
      <g id="Group_41" data-name="Group 41">
        <g id="Group_36" data-name="Group 36" transform="translate(0 104.046)">
          <g id="Group_27" data-name="Group 27" transform="translate(46.712 167.718)">
            <path id="Path_84" data-name="Path 84" d="M454.165,408.073l-82.5,49.076,10.355,15.678s-5.94,8.268-16.014-17.965l51.077-31.641s-15.635-2.036-15.169-4.477c.785-4.007,35.46-10.65,51.274-13.638a1.561,1.561,0,1,1,.973,2.967Z" transform="translate(-308.133 -405.027)" opacity="0.2"/>
            <path id="Path_85" data-name="Path 85" d="M396.858,432.81l13.376,23.176a280.108,280.108,0,0,1-52.645,2.588,49.857,49.857,0,0,1-16.832-3.565l-4.668-9.169,11.256-21.061Z" transform="translate(-336.088 -386.573)" opacity="0.2"/>
            <g id="Group_26" data-name="Group 26" transform="translate(31.157 37.976)">
              <path id="Path_86" data-name="Path 86" d="M399.227,424.66l-36.692,21.78,5.938,17.672,42.849-17.759Z" transform="translate(-342.536 -424.66)" fill="#895555"/>
              <g id="Group_25" data-name="Group 25" transform="translate(0 17.18)">
                <path id="Path_87" data-name="Path 87" d="M352.2,443.411l3.165,12.677a4.951,4.951,0,0,1,3.387,3.307c.421,1.5-.794,5.565-.794,5.565l8.445,34.925a14.067,14.067,0,0,0,3.337-1.21,16.133,16.133,0,0,0,2.841-2.4c2.645-2.88,3.052-7.154,3.242-10.323.317-5.312,3.829-20.751,3.829-20.751a17.292,17.292,0,0,1,5.662-7.449c2.441-1.918,3.617-4.394,3.44-5.954-.355-3.182-2.6-4.439-5.57-4.169l-3.454.318a6.011,6.011,0,0,1-1.424-7.964s2.258-7.487-.944-6.311c-1.827.672-9.884,3.985-16.326,6.412-1.5.567-2.922,1.1-4.169,1.569v0c-2.767,1.041-4.667,1.76-4.667,1.76Z" transform="translate(-352.196 -433.542)" fill="#263238"/>
                <path id="Path_88" data-name="Path 88" d="M367.182,455.17a.5.5,0,0,0-.1-.59,5.7,5.7,0,0,0-2.658-1.471c-.544-.131-.819.741-.27.873a5.039,5.039,0,0,1,2.347,1.287.419.419,0,0,0,.676-.091l0-.008Z" transform="translate(-341.303 -415.272)" fill="#2a9f4b"/>
                <path id="Path_89" data-name="Path 89" d="M367.595,453.6a.5.5,0,0,0-.1-.59,5.705,5.705,0,0,0-2.658-1.471c-.544-.13-.819.741-.27.873a5.038,5.038,0,0,1,2.347,1.287.419.419,0,0,0,.676-.09l0-.008Z" transform="translate(-340.917 -416.743)" fill="#2a9f4b"/>
                <path id="Path_90" data-name="Path 90" d="M367.946,451.99a.5.5,0,0,0-.1-.59,5.7,5.7,0,0,0-2.658-1.471c-.544-.13-.819.741-.27.873a5.031,5.031,0,0,1,2.347,1.287.419.419,0,0,0,.676-.091l0-.008Z" transform="translate(-340.589 -418.243)" fill="#2a9f4b"/>
              </g>
              <path id="Path_91" data-name="Path 91" d="M356.863,437.859v0c-2.767,1.041-4.667,1.76-4.667,1.76l3.165,12.677a4.951,4.951,0,0,1,3.387,3.307c.421,1.5-.794,5.565-.794,5.565L366.4,496.1a14.089,14.089,0,0,0,3.337-1.21c.528-.358,1-.722,1.44-1.089l-13.618-56.2-.695.261Z" transform="translate(-352.196 -412.572)" fill="#fff" opacity="0.2"/>
              <path id="Path_92" data-name="Path 92" d="M366.09,451.4a21.421,21.421,0,0,1,3.616-.985,7.158,7.158,0,0,1,3.7.317,1.756,1.756,0,0,1,1.2,1.162,1.63,1.63,0,0,1-.847,1.511,4.421,4.421,0,0,1-3.391.532,16.441,16.441,0,0,1-4.273-2.537" transform="translate(-339.215 -400.696)" fill="none" stroke="#2a9f4b" stroke-miterlimit="10" stroke-width="0.25"/>
              <path id="Path_93" data-name="Path 93" d="M366.087,454.47a21.364,21.364,0,0,0,2.868-2.413,7.162,7.162,0,0,0,1.843-3.219,1.756,1.756,0,0,0-.273-1.646,1.63,1.63,0,0,0-1.725-.164,4.422,4.422,0,0,0-2.367,2.486,16.461,16.461,0,0,0-.346,4.957" transform="translate(-339.248 -403.917)" fill="none" stroke="#2a9f4b" stroke-miterlimit="10" stroke-width="0.25"/>
            </g>
          </g>
          <path id="Path_94" data-name="Path 94" d="M400.737,347s4.644,56.249,6.239,59.306c5.391,10.339,42.578,28.89,42.578,28.89l19.342-3.46,13.435,11.91-9.292,6.846L462.5,446.153a99.376,99.376,0,0,1-17.664,1.025c-9.929-.293-59.411-12.668-67.009-26.254s-7.491-76.686-7.491-76.686l30.4,2.763Z" transform="translate(-257.377 -294.107)" fill="#895555"/>
          <g id="Group_28" data-name="Group 28" transform="translate(0.532)">
            <path id="Path_95" data-name="Path 95" d="M371.761,387.725s-13.321-49.671,5.488-62.8,31.45,55,31.45,55l-36.938,7.8Z" transform="translate(-260.856 -313.716)" fill="#2a9f4b"/>
            <path id="Path_96" data-name="Path 96" d="M371.761,387.725s-13.321-49.671,5.488-62.8,31.45,55,31.45,55l-36.938,7.8Z" transform="translate(-260.856 -313.716)" fill="#fff" opacity="0.5"/>
            <path id="Path_97" data-name="Path 97" d="M432.124,482.73l1.781-65.261,1.232-89.393-38.311-9.5-26.831-.253-45.378,14.13-1.537,21.9s1.4,100.8,1.064,103.832c-.41,3.712-11.928,26.745-11.928,26.745,47.915,12.414,120.571,1.154,119.909-2.2Z" transform="translate(-312.214 -318.321)" fill="#2a9f4b"/>
            <path id="Path_98" data-name="Path 98" d="M375.264,374.18l.646-38.93,6.848,37.348Z" transform="translate(-253.306 -302.504)" opacity="0.2"/>
            <path id="Path_99" data-name="Path 99" d="M335.387,376.413c1.195-.2,6.067-1.637,6.067-1.637l-11.071-37.93L347.52,378.52l-11.16,4.065-.973-6.173Z" transform="translate(-295.239 -301.013)" opacity="0.2"/>
          </g>
          <g id="Group_30" data-name="Group 30" transform="translate(1.364 13.387)">
            <path id="Path_100" data-name="Path 100" d="M346.486,341.28s7.519,62.517,12.75,68.495c8.84,10.1,53.3,37.522,53.3,37.522l22.806-7.25a5.061,5.061,0,0,1,4.6.888l15.086,12.235-1.51,1.2a2.138,2.138,0,0,1-2.317.2l-2.363-1.264,2.6,2.708-.871.691a3.453,3.453,0,0,1-3.122.586l-6.847-2.054,6.244,4.427a5.711,5.711,0,0,1-5.249.943l-10.012-3.176a128.405,128.405,0,0,1-21.052,2.385c-11.91.381-67.472-20.889-77.512-35.559s-19.072-74.622-19.072-74.622l32.537-8.359Z" transform="translate(-311.426 -310.257)" fill="#895555"/>
            <g id="Group_29" data-name="Group 29">
              <path id="Path_101" data-name="Path 101" d="M316.611,396.791s-12.327-56.822,6.482-69.948,34.935,58.775,34.935,58.775Z" transform="translate(-312.645 -325.242)" fill="#2a9f4b"/>
              <path id="Path_102" data-name="Path 102" d="M316.611,396.791s-12.327-56.822,6.482-69.948,34.935,58.775,34.935,58.775Z" transform="translate(-312.645 -325.242)" fill="#fff" opacity="0.5"/>
            </g>
          </g>
          <g id="Group_32" data-name="Group 32" transform="translate(82.309 94.295)">
            <path id="Path_103" data-name="Path 103" d="M426.053,402.614l-34.719-1.024L354.493,400.5v.024c-.063,2.733,2.924,5.027,6.67,5.125l36.809,1.085,21.056.62.1,0h.005l58.6,1.728c3.717.084,6.771-2.039,6.832-4.75l-58.508-1.725Z" transform="translate(-354.491 -335.831)" fill="#263238"/>
            <path id="Path_104" data-name="Path 104" d="M451.293,440.081l-65.374-1.927a1.867,1.867,0,0,1-1.977-1.713,1.347,1.347,0,0,1,.118-.5l31.048-65.816a5.686,5.686,0,0,1,5.5-3.055L486.024,369a1.839,1.839,0,0,1,1.955,1.667,1.331,1.331,0,0,1-.135.542L456.8,437.026A5.729,5.729,0,0,1,451.293,440.081Z" transform="translate(-326.976 -367.069)" fill="#263238"/>
            <path id="Path_105" data-name="Path 105" d="M513.539,369l-65.414-1.928a5.687,5.687,0,0,0-5.5,3.055l-29.876,63.334-21.413-.631-36.841-1.086v.024c-.063,2.733,2.924,5.027,6.67,5.125l36.809,1.085,21.056.621.1,0h.005l58.6,1.728a8.643,8.643,0,0,0,3.245-.554,5.153,5.153,0,0,0,3.338-2.748l31.047-65.816a1.329,1.329,0,0,0,.135-.543A1.838,1.838,0,0,0,513.539,369Z" transform="translate(-354.491 -367.069)" fill="#fff" opacity="0.7"/>
            <path id="Path_106" data-name="Path 106" d="M419.99,389.03c-1.507,3.158-4.435,5.271-6.557,4.761s-2.6-3.443-1.139-6.611,4.426-5.229,6.547-4.719,2.677,3.328,1.149,6.569Z" transform="translate(-301.274 -352.762)" fill="#fff"/>
            <g id="Group_31" data-name="Group 31" transform="translate(57.056)" opacity="0.3">
              <line id="Line_7" data-name="Line 7" x2="1.199" y2="0.037" transform="translate(0 66.356)" fill="none" stroke="#000" stroke-linecap="round" stroke-linejoin="round" stroke-width="0"/>
              <path id="Path_107" data-name="Path 107" d="M414.485,370.127l-29.876,63.334,3.03.089,32.349-66.479A5.687,5.687,0,0,0,414.485,370.127Z" transform="translate(-383.408 -367.069)"/>
            </g>
          </g>
          <g id="Group_35" data-name="Group 35" transform="translate(0 150.344)">
            <g id="Group_34" data-name="Group 34" transform="translate(169.745 49.392)">
              <path id="Path_108" data-name="Path 108" d="M399.694,451.82l41.911,8.02,7.267-17.169-43.851-15.113Z" transform="translate(-399.694 -415.995)" fill="#895555"/>
              <g id="Group_33" data-name="Group 33" transform="translate(34.219)">
                <path id="Path_109" data-name="Path 109" d="M443.542,474.737l6.034-11.589a4.949,4.949,0,0,1-.343-4.721c.679-1.4,4.284-3.64,4.284-3.64l16.832-31.745a14.074,14.074,0,0,0-3.3-1.306,16.131,16.131,0,0,0-3.722-.083c-3.89.4-7.028,3.332-9.271,5.579-3.759,3.767-16.624,13-16.624,13a17.285,17.285,0,0,1-9.177,1.823c-3.1-.183-5.621.893-6.523,2.177-1.844,2.618-1,5.045,1.406,6.814l2.8,2.052A6.012,6.012,0,0,1,421.721,460s-6.654,4.108-3.478,5.35c1.814.708,10.042,3.569,16.473,6.023,1.5.571,2.918,1.114,4.162,1.59l0,0c2.761,1.055,4.661,1.777,4.661,1.777Z" transform="translate(-417.384 -421.58)" fill="#263238"/>
                <path id="Path_110" data-name="Path 110" d="M431.336,428.584a.5.5,0,0,0-.316.508,5.7,5.7,0,0,0,1.015,2.863c.32.458,1.1-.012.781-.474a5.032,5.032,0,0,1-.9-2.519.42.42,0,0,0-.566-.381l-.009,0Z" transform="translate(-404.646 -415.065)" fill="#2a9f4b"/>
                <path id="Path_111" data-name="Path 111" d="M429.983,429.49a.5.5,0,0,0-.316.508,5.7,5.7,0,0,0,1.015,2.863c.321.458,1.1-.011.781-.474a5.038,5.038,0,0,1-.9-2.519.419.419,0,0,0-.566-.381Z" transform="translate(-405.911 -414.219)" fill="#2a9f4b"/>
                <path id="Path_112" data-name="Path 112" d="M428.656,430.459a.5.5,0,0,0-.317.508,5.7,5.7,0,0,0,1.015,2.863c.321.458,1.1-.011.781-.474a5.03,5.03,0,0,1-.9-2.519.419.419,0,0,0-.566-.381l-.009,0Z" transform="translate(-407.15 -413.314)" fill="#2a9f4b"/>
              </g>
              <path id="Path_113" data-name="Path 113" d="M439.186,458.419c.679-1.4,4.284-3.64,4.284-3.64L460.3,423.033a14.074,14.074,0,0,0-3.3-1.306,17.975,17.975,0,0,0-1.8-.139l-27.063,51.1.693.265,0,0c2.762,1.055,4.661,1.777,4.661,1.777l6.034-11.589a4.95,4.95,0,0,1-.343-4.721Z" transform="translate(-373.119 -421.572)" fill="#fff" opacity="0.2"/>
              <path id="Path_114" data-name="Path 114" d="M431.609,433.886a21.375,21.375,0,0,1-3.36-1.66,7.161,7.161,0,0,1-2.556-2.688,1.756,1.756,0,0,1-.127-1.664,1.631,1.631,0,0,1,1.636-.57,4.421,4.421,0,0,1,2.891,1.85,16.445,16.445,0,0,1,1.517,4.732" transform="translate(-375.674 -416.253)" fill="none" stroke="#2a9f4b" stroke-miterlimit="10" stroke-width="0.25"/>
              <path id="Path_115" data-name="Path 115" d="M432.51,430.836a21.341,21.341,0,0,0-3.747-.095,7.157,7.157,0,0,0-3.514,1.188,1.756,1.756,0,0,0-.887,1.414,1.63,1.63,0,0,0,1.182,1.266,4.421,4.421,0,0,0,3.42-.291,16.446,16.446,0,0,0,3.545-3.482" transform="translate(-376.647 -413.068)" fill="none" stroke="#2a9f4b" stroke-miterlimit="10" stroke-width="0.25"/>
            </g>
            <path id="Path_116" data-name="Path 116" d="M324.018,457.4c-8.656-14.729-28.026-54.531,13.854-60.939s179.1,63.833,179.1,63.833l-9.6,26.3L378.439,462.353s17.027,24.185-4.438,22.473C342.821,480.81,335.533,473.107,324.018,457.4Z" transform="translate(-311.939 -396.045)" fill="#263238"/>
            <path id="Path_117" data-name="Path 117" d="M364.9,436.648l-35.207-12.229s29.276,19.118,40.147,21.609l-4.94-9.381Z" transform="translate(-295.35 -369.536)" opacity="0.2"/>
          </g>
        </g>
        <g id="Group_40" data-name="Group 40" transform="translate(35.393)">
          <path id="Path_118" data-name="Path 118" d="M338.176,344.034c9.474-9.072,7.578-33.691,5.052-46.4l29.818,22.979a34.922,34.922,0,0,0-1.492,4.574,16.9,16.9,0,0,0-.214,8.559c.647,2.324,3.652,8.733,3.652,8.733s1.847,7.253-17.491,8.019c-8.448,1.251-19.325-6.458-19.325-6.458Z" transform="translate(-322.819 -233.608)" fill="#895555"/>
          <path id="Path_119" data-name="Path 119" d="M343.823,304.219c-.838,15.056,14.571,21.439,22.287,23.39a16.9,16.9,0,0,1,.213-8.559Z" transform="translate(-317.573 -227.451)" opacity="0.2"/>
          <g id="Group_38" data-name="Group 38" transform="translate(0 15.898)">
            <g id="Group_37" data-name="Group 37">
              <path id="Path_120" data-name="Path 120" d="M338.325,307.137c4.525,17.471,6.715,27.416,17.659,34.681,16.463,10.929,36.921-1.09,37.864-19.608.849-16.667-6.694-42.438-25.871-45.961C349.082,272.778,333.8,289.666,338.325,307.137Z" transform="translate(-323.428 -269.908)" fill="#895555"/>
              <path id="Path_121" data-name="Path 121" d="M337.5,286.2c.664-10.911,27.5-16.06,36.03-12.148,1.274.585-13.139,11.331-12.24,10.808l-7.006,3.921c-1.2-.033-3.216,1.7-3.719,5.4,0,0,6.434,28.8-.4,38.771-7.41-1.943-10.019-13.348-13.477-19.782-5.153-9.586-11.869-23.781.811-26.973Z" transform="translate(-330.237 -272.751)" fill="#263238"/>
              <path id="Path_122" data-name="Path 122" d="M336.216,306.059a17.2,17.2,0,0,0,10.438,8.144c5.937,1.6,6.851-4.546,5.263-10.02-1.43-4.927-4.113-10.752-10.1-9.942-5.9.8-8.266,6.925-5.6,11.818Z" transform="translate(-325.668 -252.742)" fill="#895555"/>
              <path id="Path_123" data-name="Path 123" d="M350.762,293.529c.349,1.809,1.618,3.081,2.835,2.841s1.921-1.9,1.573-3.711-1.618-3.081-2.835-2.841-1.922,1.9-1.573,3.711Z" transform="translate(-311.143 -256.832)" fill="#263238"/>
              <path id="Path_124" data-name="Path 124" d="M360.27,292.431c.348,1.81,1.617,3.082,2.835,2.841s1.921-1.9,1.573-3.712-1.618-3.081-2.835-2.841-1.922,1.9-1.573,3.711Z" transform="translate(-302.259 -257.858)" fill="#263238"/>
              <path id="Path_125" data-name="Path 125" d="M358.223,290.58s7.63,7.885,10.225,11.191c-2.154,2.761-6.823,2.55-6.823,2.55l-3.4-13.741Z" transform="translate(-304.089 -256.092)" fill="#6d3939"/>
              <path id="Path_126" data-name="Path 126" d="M349.051,290.338a.913.913,0,0,0,.852-.283,7.3,7.3,0,0,1,5.9-2.522.9.9,0,0,0,1.01-.739.853.853,0,0,0-.747-.967,9.083,9.083,0,0,0-7.494,3.106.84.84,0,0,0,.074,1.214.872.872,0,0,0,.4.192Z" transform="translate(-313.312 -260.564)" fill="#263238"/>
            </g>
            <path id="Path_127" data-name="Path 127" d="M337.352,298.254a3.413,3.413,0,0,1,3.283-1.8,5.846,5.846,0,0,1,3.533,1.631,8.915,8.915,0,0,1,2.516,3.9" transform="translate(-323.589 -250.605)" fill="none" stroke="#000" stroke-linecap="round" stroke-linejoin="round" stroke-width="0.5" opacity="0.2"/>
          </g>
          <path id="Path_128" data-name="Path 128" d="M368.844,287.262a.886.886,0,0,0,.395-.321.851.851,0,0,0-.238-1.2,8.948,8.948,0,0,0-7.984-1.006.869.869,0,0,0-.47,1.14.882.882,0,0,0,1.151.45,6.973,6.973,0,0,1,6.314.863.9.9,0,0,0,.832.073Z" transform="translate(-301.982 -246.135)" fill="#263238"/>
          <g id="Group_39" data-name="Group 39" transform="translate(43.794 63.701)">
            <path id="Path_129" data-name="Path 129" d="M366.293,303.96a51.451,51.451,0,0,0-3.766,6.435c-.417-.126-.846-.245-1.257-.391-5.679-1.8-7.73-4.5-8.25-6.963a7.861,7.861,0,0,1,.157-3.644,7.5,7.5,0,0,1,.792-1.917c2.444,2.753,7.593,4.834,10.4,5.828,1.229.372,1.923.651,1.923.651Z" transform="translate(-352.877 -297.446)" fill="#263238"/>
            <path id="Path_130" data-name="Path 130" d="M364.258,303.291l-1.165,1.869c-5.331-1.7-8.858-3.6-10.028-5.78a7.494,7.494,0,0,1,.792-1.917c2.459,2.78,7.593,4.833,10.4,5.828Z" transform="translate(-352.702 -297.463)" fill="#fff"/>
            <path id="Path_131" data-name="Path 131" d="M361.235,307.3c-5.679-1.8-7.73-4.5-8.249-6.963a19.193,19.193,0,0,1,5.909,3.236,7.217,7.217,0,0,1,2.34,3.727Z" transform="translate(-352.776 -294.778)" fill="#c15854"/>
          </g>
          <path id="Path_132" data-name="Path 132" d="M338.465,290.861s8.231-26.953,32.913-26.318A18.92,18.92,0,0,0,365.4,268.5s20.4-5.632,29.548,7.743l-4.406-1.579s7.491,11.073,2.771,20.171l-1.882-3.783s-6.55,12.08-19.785,11.433l3.969-3.049s-21.943,3.352-28.267-1.19a51.389,51.389,0,0,1-8.885-7.383Z" transform="translate(-322.549 -264.531)" fill="#263238"/>
        </g>
      </g>
    </g>
  </g>
</svg>
