<svg xmlns="http://www.w3.org/2000/svg" width="1197.565" height="706.188" viewBox="0 0 1197.565 706.188">
  <g id="Mobile_UI-UX-pana" data-name="Mobile UI-UX-pana" transform="translate(15.453 -30.796)">
    <g id="freepik--background-simple--inject-88" transform="translate(111.902 42.432)">
      <path id="Path_136" data-name="Path 136" d="M615.843,43.273l-2.57,1.122a63.477,63.477,0,0,0-38.585,53.149,62.663,62.663,0,0,0,0,9.05,66.686,66.686,0,0,0,34.426,52.76c11.387,6.122,25.048,9.346,33.429,19.082,10.9,12.758,8.692,31.559,5.9,47.993s-4.922,35.251,6.028,47.962c6.854,7.96,17.649,11.667,28.179,12.555,27.868,2.337,55.252-13.537,70.923-36.373s20.749-51.529,19.035-79.116c-2.414-38.631-18.3-77.247-47.479-103.152S652.9,30.858,615.843,43.273Z" transform="translate(217.139 -38.266)" fill="#eaf6ed"/>
      <path id="Path_137" data-name="Path 137" d="M292.743,494.778l1.558-2.305a63.477,63.477,0,0,0,4.751-65.5,62.034,62.034,0,0,0-4.767-7.7,66.624,66.624,0,0,0-57.028-26.606c-12.913.794-26.185,5.327-38.46,1.4-15.982-5.094-24.036-22.244-30.329-37.666s-14.409-32.556-30.407-37.572c-10.016-3.115-21.154-.623-30.562,4.175-24.923,12.711-39.815,40.641-41.093,68.306s9.549,54.738,25.547,77.263c22.416,31.559,56.265,55.984,94.725,62.62S267.8,524.873,292.743,494.778Z" transform="translate(-66.304 117.442)" fill="#eaf6ed"/>
    </g>
    <g id="freepik--Device--inject-88" transform="translate(402.347 46.893)">
      <rect id="Rectangle_46" data-name="Rectangle 46" width="338.632" height="664.865" rx="41.37" transform="translate(0.28 0.405)" fill="#e0e0e0"/>
      <path id="Path_138" data-name="Path 138" d="M527.292,706.4l4.891-.3a45.88,45.88,0,0,0,5.966-.763l1.854-.28c.639-.109,1.277-.312,1.947-.483l4.315-1.106a66.547,66.547,0,0,0,20.515-10.811l1.4-1.059,1.308-1.184,2.71-2.461c.935-.826,1.714-1.838,2.586-2.757a29.631,29.631,0,0,0,2.586-2.944,64.468,64.468,0,0,0,4.673-6.745c.685-1.215,1.558-2.383,2.15-3.707s1.262-2.648,1.916-3.988a36.22,36.22,0,0,0,1.558-4.237l.794-2.181c.265-.732.405-1.558.623-2.274.374-1.558.826-3.115,1.153-4.673s.483-3.225.732-4.86c.685-6.589.436-13.6.483-20.889V465.421c0-85.783,0-187.939-.093-301.356V110.106c0-3.661-.14-7.29-.374-10.9a64.63,64.63,0,0,0-6.06-21.076,63.724,63.724,0,0,0-53.258-35.983c-3.785-.265-7.617-.218-11.465-.218H317.53a63.975,63.975,0,0,0-63.866,59.785c-.28,3.941-.2,7.929-.218,11.9V642.268c0,1.4.14,2.788.2,4.175l.109,2.087.311,2.041c.2,1.371.421,2.726.623,4.1s.67,2.648,1,3.972a65.09,65.09,0,0,0,2.57,7.789c.483,1.262,1.137,2.446,1.7,3.661a33.494,33.494,0,0,0,1.838,3.567,64.052,64.052,0,0,0,21.325,22.416,64.833,64.833,0,0,0,27.649,9.7c2.4.14,4.782.28,7.15.358h47.37l87.419.078h55.237l-55.237.078H317.935c-2.383-.078-4.782-.218-7.212-.358a65.5,65.5,0,0,1-28.039-9.8,64.77,64.77,0,0,1-21.528-22.6,33.888,33.888,0,0,1-1.791-3.287c-.576-1.231-1.231-2.43-1.729-3.707a63.353,63.353,0,0,1-2.586-7.789c-.343-1.34-.717-2.664-1.013-4.019s-.421-2.742-.639-4.128l-.312-2.072-.109-2.087c-.078-1.4-.14-2.8-.218-4.206V113.626c0-3.972,0-7.944.218-11.963A64.832,64.832,0,0,1,317.654,41.13H520.126c3.848,0,7.664,0,11.512.218a64.709,64.709,0,0,1,60.019,57.745c.234,3.676.436,7.368.374,11.013v53.959c0,113.417,0,215.572-.078,301.356V628.7c0,7.29.187,14.284-.53,20.936-.249,1.651-.5,3.271-.748,4.891s-.779,3.115-1.153,4.673c-.218.763-.374,1.558-.623,2.274s-.545,1.464-.81,2.2c-.576,1.433-.981,2.913-1.667,4.253l-1.932,4c-.608,1.324-1.464,2.508-2.165,3.723a64.883,64.883,0,0,1-4.673,6.76c-.794,1.075-1.76,1.978-2.6,2.96a25.9,25.9,0,0,1-2.617,2.757l-2.71,2.461-1.324,1.2-1.4,1.044a66.982,66.982,0,0,1-20.624,10.779l-4.33,1.09a19.544,19.544,0,0,1-1.947.467l-1.854.28a45.262,45.262,0,0,1-5.982.716Z" transform="translate(-252.76 -41.13)" fill="#263238"/>
      <rect id="Rectangle_47" data-name="Rectangle 47" width="305.344" height="627.869" rx="33.43" transform="translate(15.78 16.387)" fill="#fff"/>
      <g id="Group_42" data-name="Group 42" transform="translate(305.255 519.187)" opacity="0.3">
        <path id="Path_139" data-name="Path 139" d="M482.381,464.575,448.936,379.1a3.474,3.474,0,0,1,3.224-4.673h30.22Z" transform="translate(-448.723 -374.43)"/>
      </g>
      <path id="Path_140" data-name="Path 140" d="M519.166,176.91a33.568,33.568,0,0,0,6.075-1A22.633,22.633,0,0,0,538.7,165.274a21.807,21.807,0,0,0,2.243-5.577,22.927,22.927,0,0,0,.576-3.115c0-1.106.156-2.212.125-3.4v-7.352c0-2.539,0-5.234-.14-7.9a22.572,22.572,0,0,0-7.882-14.829,21.589,21.589,0,0,0-8.209-4.362,31.965,31.965,0,0,0-9.86-.872l-215.853.234a22.089,22.089,0,0,0-21.621,17.54,36.982,36.982,0,0,0-.467,7.477v7.617a38.413,38.413,0,0,0,.374,7.384,23.1,23.1,0,0,0,2.43,6.76,22.291,22.291,0,0,0,10.375,9.346,23.179,23.179,0,0,0,6.761,1.776c2.29.187,4.767.093,7.134.125h28.039l97.046.187,65.424.249,17.773.156h0l-17.773.156-65.424.249-97.046.171H304.684c-2.4,0-4.751,0-7.275-.109a25.081,25.081,0,0,1-7.259-1.885,23.927,23.927,0,0,1-11.122-10.094,24.409,24.409,0,0,1-2.617-7.259l-.28-1.932-.109-1.947v-11.4a36.981,36.981,0,0,1,.5-7.789,23.693,23.693,0,0,1,23.194-18.833l215.853.234c1.729,0,3.411,0,5.14.093a23.46,23.46,0,0,1,5.031.872,22.852,22.852,0,0,1,8.568,4.673,23.491,23.491,0,0,1,8.069,15.858c.187,2.819,0,5.421.078,7.991s0,5,0,7.352a23.365,23.365,0,0,1-10.2,19.986,22.617,22.617,0,0,1-6.885,3.115l-1.418.343a9.377,9.377,0,0,0-1.23.171,12.624,12.624,0,0,1-1.947.187h-1.184a1.044,1.044,0,0,1-.421-.016Z" transform="translate(-239.805 0.654)" fill="#2a9f4b"/>
      <path id="Path_141" data-name="Path 141" d="M415.044,83.858a4.164,4.164,0,0,0-1.355.327,5.794,5.794,0,0,0-2.991,2.1,5.468,5.468,0,0,0-.7,5.125,5.405,5.405,0,0,0,10.11,0,5.468,5.468,0,0,0-.717-5.125,5.717,5.717,0,0,0-2.975-2.134c-.857-.249-1.371-.265-1.371-.327a2.632,2.632,0,0,1,1.449,0,5.7,5.7,0,0,1,3.349,2.072,6,6,0,0,1,.966,5.732,6.106,6.106,0,0,1-11.512,0,5.95,5.95,0,0,1,.95-5.732,5.732,5.732,0,0,1,3.365-2.072A2.586,2.586,0,0,1,415.044,83.858Z" transform="translate(-165.654 -17.374)" fill="#2a9f4b"/>
      <path id="Path_142" data-name="Path 142" d="M425.626,83.857a4.285,4.285,0,0,0-1.371.327,5.716,5.716,0,0,0-2.975,2.1,5.4,5.4,0,1,0,9.393,5.125,5.467,5.467,0,0,0-.7-5.125,5.794,5.794,0,0,0-2.991-2.134c-.841-.249-1.355-.265-1.355-.327a2.586,2.586,0,0,1,1.433,0,5.732,5.732,0,0,1,3.365,2.072,5.95,5.95,0,0,1,.95,5.732,6.106,6.106,0,0,1-11.512,0,6,6,0,0,1,.966-5.732,5.7,5.7,0,0,1,3.349-2.072,2.632,2.632,0,0,1,1.449.031Z" transform="translate(-159.755 -17.374)" fill="#2a9f4b"/>
      <path id="Path_143" data-name="Path 143" d="M436.176,83.858a4.248,4.248,0,0,0-1.355.327,5.717,5.717,0,0,0-2.975,2.1,5.405,5.405,0,1,0,8.677,0,5.718,5.718,0,0,0-2.96-2.134c-.857-.249-1.371-.265-1.371-.327a2.632,2.632,0,0,1,1.449,0,5.779,5.779,0,0,1,3.365,2.072,6,6,0,0,1,.95,5.732,6.106,6.106,0,0,1-11.512,0,6,6,0,0,1,.95-5.732,5.779,5.779,0,0,1,3.365-2.072,2.57,2.57,0,0,1,1.418.031Z" transform="translate(-153.856 -17.374)" fill="#2a9f4b"/>
      <path id="Path_144" data-name="Path 144" d="M290.464,82.2l-6.932,7.134a1.963,1.963,0,0,0,0,2.757l6.932,5.732a2.009,2.009,0,0,0,2.757,0,1.978,1.978,0,0,0,0-2.757l-6.947-5.732V92.1l6.947-7.134a1.95,1.95,0,1,0-2.757-2.757Z" transform="translate(-235.913 -18.541)" fill="#2a9f4b"/>
      <path id="Path_145" data-name="Path 145" d="M303.866,138.094A5.172,5.172,0,1,1,299.613,133a5.171,5.171,0,0,1,4.253,5.094.981.981,0,0,0,1.947,0,7.212,7.212,0,0,0-4.673-6.667,7.118,7.118,0,1,0,4.658,6.667.981.981,0,0,0-1.932,0Z" transform="translate(-231.12 8.985)" fill="#2a9f4b"/>
      <path id="Path_146" data-name="Path 146" d="M298.478,139.473l2.321,2.57.343.374a.981.981,0,0,0,1.371,0,1,1,0,0,0,0-1.386l-2.321-2.57-.327-.358a.981.981,0,0,0-1.386,0,1,1,0,0,0,0,1.371Z" transform="translate(-227.415 12.793)" fill="#2a9f4b"/>
      <path id="Path_147" data-name="Path 147" d="M305.744,197.447a28.036,28.036,0,0,0,3.848-1.012,11.605,11.605,0,0,0,3.785-2.524,10.9,10.9,0,0,0-3.287-17.851,10.78,10.78,0,0,0-4.3-.888H290.509a10.811,10.811,0,0,0-6.449,19.347,11.341,11.341,0,0,0,3.287,1.745,12.462,12.462,0,0,0,3.411.545c4.673,0,8.412.156,11.013.249a18.928,18.928,0,0,1,4.05.327,19.783,19.783,0,0,1-4.05.312c-2.6.093-6.355.187-11.013.249a12.961,12.961,0,0,1-3.785-.483,12.662,12.662,0,0,1-3.723-1.869,12.244,12.244,0,0,1,7.337-22.073h15.281a12.244,12.244,0,0,1,11.184,7.586,12.1,12.1,0,0,1,.421,7.866,11.9,11.9,0,0,1-3.4,5.5,11.683,11.683,0,0,1-4.206,2.461,10.9,10.9,0,0,1-3.006.53,2.836,2.836,0,0,1-1.122-.016Z" transform="translate(-238.513 32.706)" fill="#2a9f4b"/>
      <path id="Path_148" data-name="Path 148" d="M448.868,197.447a28.036,28.036,0,0,0,3.848-1.012,11.808,11.808,0,0,0,3.8-2.524,11.075,11.075,0,0,0,2.352-12.2,10.9,10.9,0,0,0-5.655-5.655,10.78,10.78,0,0,0-4.3-.888H433.634a10.8,10.8,0,0,0-10.624,12.462,10.9,10.9,0,0,0,4.05,6.885,11.747,11.747,0,0,0,3.287,1.745,12.556,12.556,0,0,0,3.411.545c4.673,0,8.427.156,11.029.249a18.693,18.693,0,0,1,4.034.327,19.518,19.518,0,0,1-4.035.311c-2.6.093-6.371.187-11.029.249a11.854,11.854,0,0,1-7.508-2.352,12.244,12.244,0,0,1,7.337-22.073h15.281a12.132,12.132,0,0,1,11.6,15.453,11.729,11.729,0,0,1-7.6,7.96,10.9,10.9,0,0,1-3.006.53,2.836,2.836,0,0,1-1-.016Z" transform="translate(-158.759 32.706)" fill="#2a9f4b"/>
      <path id="Path_149" data-name="Path 149" d="M387.614,197.48c0-.093.7,0,1.963-.358a11.559,11.559,0,0,0,5.031-2.43,11.118,11.118,0,0,0-.67-17.633,10.9,10.9,0,0,0-6.231-1.994H380.09l-16.839.078H324.7a10.9,10.9,0,0,0-8.256,3.879,10.748,10.748,0,0,0-2.321,8.567,10.639,10.639,0,0,0,4.673,7.228,10.312,10.312,0,0,0,3.957,1.558,11.867,11.867,0,0,0,2.1.2H327.1l31.5.171,21.232.249,5.764.156a8.3,8.3,0,0,1,2.025.171,10.359,10.359,0,0,1-2.025.156l-5.764.156-21.232.249-31.5.187h-2.243a15.57,15.57,0,0,1-2.383-.2,12.306,12.306,0,0,1,2.259-24.409h38.553l16.839.078h7.633a12.26,12.26,0,0,1,6.9,2.321,12.088,12.088,0,0,1,4.066,5.218,12.227,12.227,0,0,1,.794,5.826,11.886,11.886,0,0,1-4.5,8.007,11.106,11.106,0,0,1-5.374,2.274,6.916,6.916,0,0,1-1.558,0A1.464,1.464,0,0,1,387.614,197.48Z" transform="translate(-219.505 32.673)" fill="#2a9f4b"/>
      <path id="Path_150" data-name="Path 150" d="M425.52,197.513a6.977,6.977,0,0,1,1.558-.28,11.574,11.574,0,0,0,4.019-1.558,11.386,11.386,0,0,0,4.424-4.938,11.122,11.122,0,0,0,.327-8.567A10.9,10.9,0,0,0,425.4,175.1h-39.13a10.9,10.9,0,0,0-6.651,2.321,10.78,10.78,0,0,0-3.318,12.368,10.9,10.9,0,0,0,3.988,4.985,12.243,12.243,0,0,0,2.8,1.355,11.869,11.869,0,0,0,3.006.483h6.231l11.184.109c6.838,0,12.368.156,16.185.249,1.916,0,3.4.109,4.408.156a4.8,4.8,0,0,1,1.558.171,5.968,5.968,0,0,1-1.558.156c-1.012,0-2.492.109-4.408.156-3.816.093-9.346.187-16.185.249l-11.184.109h-6.231a12.181,12.181,0,0,1-6.636-2.025,12.462,12.462,0,0,1-4.6-5.655,12.337,12.337,0,0,1,3.77-14.206,12.462,12.462,0,0,1,7.648-2.679h39.13a12.82,12.82,0,0,1,3.193.421,12.057,12.057,0,0,1,7.788,17.026,11.776,11.776,0,0,1-4.938,5.078,10.732,10.732,0,0,1-4.284,1.277,4.969,4.969,0,0,1-1.651.311Z" transform="translate(-185.149 32.639)" fill="#2a9f4b"/>
      <path id="Path_151" data-name="Path 151" d="M304.2,216.6h-1.963a21.015,21.015,0,0,0-5.608.966,19.316,19.316,0,0,0-7.789,4.938,18.693,18.693,0,0,0-4.985,11.278c0,19.207.109,46.981.187,81.3v19.985a43.4,43.4,0,0,0,.3,6.854,19.846,19.846,0,0,0,6.62,11.885,20.142,20.142,0,0,0,13.209,4.907l64.458-.078H516.313a19.876,19.876,0,0,0,16.263-7.929,19.222,19.222,0,0,0,3.676-8.427,65.116,65.116,0,0,0,.327-9.44q0-19.129,0-37.681V236.815a21.369,21.369,0,0,0-.514-4.128,19.659,19.659,0,0,0-3.474-7.415,19.861,19.861,0,0,0-13.661-7.789,38.519,38.519,0,0,0-4.05-.14H471.357l-56.156-.093L333.873,217l-22.1-.156-5.748-.078h-1.963a1.667,1.667,0,0,1,.5,0h1.464l5.748-.078,22.1-.156,81.328-.265L471.528,216h43.523a38.489,38.489,0,0,1,4.206.125,21.388,21.388,0,0,1,19,20.811c0,1.464,0,2.9,0,4.362v96.485a25.293,25.293,0,0,1-.358,4.922,21.062,21.062,0,0,1-3.972,9.128,21.543,21.543,0,0,1-17.555,8.567H368.688l-64.458-.078a21.5,21.5,0,0,1-14.02-5.281,20.951,20.951,0,0,1-6.994-12.664,23.114,23.114,0,0,1-.3-3.567V315.355c.109-34.348.078-62.091.343-81.344a19,19,0,0,1,13.225-16.481,20.488,20.488,0,0,1,5.7-.826h1.464A1.777,1.777,0,0,1,304.2,216.6Z" transform="translate(-235.939 56.394)" fill="#2a9f4b"/>
      <path id="Path_152" data-name="Path 152" d="M287.64,222.591c.2-.389,52.807,27.774,117.467,62.9s116.938,63.866,116.72,64.349-52.806-27.774-117.483-62.916S287.422,222.981,287.64,222.591Z" transform="translate(-233.307 60.072)" fill="#2a9f4b"/>
      <path id="Path_153" data-name="Path 153" d="M524.852,225.342c.2.405-53.056,27.291-118.947,60.066S286.4,344.413,286.21,344.008s53.056-27.291,118.963-60S524.665,224.937,524.852,225.342Z" transform="translate(-234.105 61.605)" fill="#2a9f4b"/>
      <path id="Path_154" data-name="Path 154" d="M349.608,347.442a12.469,12.469,0,0,1,1.558-.327,8.459,8.459,0,0,0,3.879-2.087,8.256,8.256,0,0,0,2.617-6.231,8.116,8.116,0,0,0-4.782-7.134,8.556,8.556,0,0,0-2.461-.639h-8.879l-13.412.078H297.393a7.721,7.721,0,0,0-2.9,14.876,8.319,8.319,0,0,0,3.287.592h3.583l25.11.171c7.134,0,12.913.156,16.917.249,1.994,0,3.552.109,4.6.156a5.2,5.2,0,0,1,1.558.171,6.465,6.465,0,0,1-1.558.156c-1.044,0-2.6.109-4.6.156-4,.093-9.782.187-16.917.249l-25.11.171h-3.583a9.705,9.705,0,0,1-3.879-.67,9.346,9.346,0,0,1,3.489-17.929h53.149a9.72,9.72,0,0,1,2.8.794,9.035,9.035,0,0,1,5.218,8.162,8.817,8.817,0,0,1-3.115,6.7,8.225,8.225,0,0,1-4.237,1.947,7.562,7.562,0,0,1-1.215,0,1.121,1.121,0,0,1-.389.389Z" transform="translate(-232.966 119.671)" fill="#2a9f4b"/>
      <path id="Path_155" data-name="Path 155" d="M387.255,463.554a34.42,34.42,0,0,0,4.175-.685,17.571,17.571,0,0,0,9.751-6.683,16.918,16.918,0,0,0,3.115-7.976,37.4,37.4,0,0,0,.14-5v-5.468c0-7.539-.078-16.138-.125-25.64s0-19.908-.094-31.076V376.8c0-1.418,0-2.882-.078-4.237a16.979,16.979,0,0,0-17.851-15.437H304.556a18.785,18.785,0,0,0-5.094.794,17.713,17.713,0,0,0-4.58,2.274,16.792,16.792,0,0,0-6.106,7.944c-1.324,3.115-1.012,6.589-1.059,10.094s0,6.932,0,10.343v57.776a16.948,16.948,0,0,0,15.312,16.465c1.277.094,2.617.094,3.941.094h18.755l45.018.265,12.228.156,3.115.078a5.933,5.933,0,0,1,1.09.078,4.991,4.991,0,0,1-1.09.093l-3.115.078-12.228.156-45.018.249h-22.9a18.35,18.35,0,0,1-16.636-17.68V372.973a16.888,16.888,0,0,1,1.106-5.39,18.334,18.334,0,0,1,6.683-8.708,19.207,19.207,0,0,1,5.032-2.492,19.846,19.846,0,0,1,5.576-.872H386.32a24.039,24.039,0,0,1,4.813.421,19.048,19.048,0,0,1,4.517,1.558,18.277,18.277,0,0,1,9.892,14.783c.109,1.558.078,2.928.078,4.362v4.221c0,11.169,0,21.574-.094,31.076s-.093,18.1-.125,25.64v5.468a39.363,39.363,0,0,1-.2,5.109,17.821,17.821,0,0,1-3.411,8.24,17.586,17.586,0,0,1-10.187,6.62,13.711,13.711,0,0,1-3.115.4A4.405,4.405,0,0,1,387.255,463.554Z" transform="translate(-234.116 134.204)" fill="#2a9f4b"/>
      <path id="Path_156" data-name="Path 156" d="M406.35,403.755a44.894,44.894,0,0,1-4.221-4.034c-2.664-2.617-6.511-6.48-11.652-10.717a19.191,19.191,0,0,0-9.549-4.408,17.99,17.99,0,0,0-5.857,0,16,16,0,0,0-5.717,2.274,32.041,32.041,0,0,0-9.346,9.782l-4.066,6.137a32.9,32.9,0,0,1-4.922,6.013,9.985,9.985,0,0,1-7.493,2.835,11.667,11.667,0,0,1-6.854-3.676c-3.552-3.458-6.075-7.493-9.7-9.673a10.794,10.794,0,0,0-2.757-1.231,9.347,9.347,0,0,0-2.944-.218,13.039,13.039,0,0,0-5.483,1.791,25.952,25.952,0,0,0-7.508,7.524l-9.081,13.022c-1.075,1.558-1.932,2.726-2.523,3.5a5.841,5.841,0,0,1-.981,1.168,5.483,5.483,0,0,1,.7-1.34c.514-.857,1.277-2.087,2.29-3.676,2.009-3.115,4.922-7.789,8.661-13.35a26.59,26.59,0,0,1,7.789-8.007A14.239,14.239,0,0,1,321.1,395.5a10.9,10.9,0,0,1,3.4.2,12.272,12.272,0,0,1,3.24,1.34c4.066,2.446,6.651,6.589,10.032,9.814a10.126,10.126,0,0,0,5.9,3.115,8.349,8.349,0,0,0,6.231-2.446,31.809,31.809,0,0,0,4.673-5.7l4.081-6.122a33.133,33.133,0,0,1,9.829-10.156,17.136,17.136,0,0,1,6.231-2.414,19.052,19.052,0,0,1,6.324.14,20.344,20.344,0,0,1,10.047,4.844,133.96,133.96,0,0,1,11.387,11.169c1.262,1.386,2.212,2.492,2.851,3.256A6.673,6.673,0,0,1,406.35,403.755Z" transform="translate(-228.817 149.499)" fill="#2a9f4b"/>
      <path id="Path_157" data-name="Path 157" d="M343.131,380.326c-.156,0-.156-1.028-.67-2.757a11.621,11.621,0,0,0-4.268-6,10.717,10.717,0,0,0-4.673-1.963,11.185,11.185,0,0,0-5.717.53A10.9,10.9,0,1,0,338.162,389.1a11.59,11.59,0,0,0,4.268-6.013c.514-1.729.514-2.757.67-2.757a6.059,6.059,0,0,1,0,2.913,11.558,11.558,0,0,1-4.175,6.76,11.885,11.885,0,0,1-5.094,2.383,12.2,12.2,0,0,1-6.465-.467,11.979,11.979,0,0,1-5.779-4.268,12.275,12.275,0,0,1,12.244-19.362,12.057,12.057,0,0,1,5.094,2.368,11.574,11.574,0,0,1,4.175,6.776,5.951,5.951,0,0,1,.031,2.9Z" transform="translate(-215.725 141.198)" fill="#2a9f4b"/>
      <path id="Path_158" data-name="Path 158" d="M448.038,416.664c-.14,0-.156-1.028-.67-2.757a11.543,11.543,0,0,0-4.253-6.013,11.246,11.246,0,0,0-4.673-1.963,10.894,10.894,0,0,0-5.7,20.92,11.075,11.075,0,0,0,10.359-1.433,11.574,11.574,0,0,0,4.253-6c.514-1.729.53-2.773.67-2.757a5.5,5.5,0,0,1,0,2.9,11.574,11.574,0,0,1-4.175,6.776,11.885,11.885,0,0,1-5.094,2.368A12.239,12.239,0,0,1,426.51,409.39a12.057,12.057,0,0,1,5.779-4.268,12.2,12.2,0,0,1,6.465-.467,11.713,11.713,0,0,1,5.094,2.383,11.559,11.559,0,0,1,4.175,6.76A5.592,5.592,0,0,1,448.038,416.664Z" transform="translate(-157.212 161.482)" fill="#2a9f4b"/>
      <path id="Path_159" data-name="Path 159" d="M427.172,416.664c-.14,0-.156-1.028-.67-2.757a11.543,11.543,0,0,0-4.253-6.013,11.169,11.169,0,0,0-4.673-1.963,10.888,10.888,0,1,0,0,21.45,10.779,10.779,0,0,0,4.673-1.963,11.574,11.574,0,0,0,4.253-6c.514-1.729.53-2.773.67-2.757a5.576,5.576,0,0,1,0,2.9A11.574,11.574,0,0,1,423,426.338a12.024,12.024,0,0,1-5.109,2.368,12.228,12.228,0,0,1-12.244-4.673,12.462,12.462,0,0,1-2.414-7.321,12.229,12.229,0,0,1,2.43-7.321,11.947,11.947,0,0,1,5.764-4.268,12.2,12.2,0,0,1,6.464-.467A11.87,11.87,0,0,1,423,407.038a11.558,11.558,0,0,1,4.174,6.76A5.67,5.67,0,0,1,427.172,416.664Z" transform="translate(-168.84 161.482)" fill="#2a9f4b"/>
      <path id="Path_160" data-name="Path 160" d="M403.969,416.681c-.156,0-.156-1.028-.67-2.757a11.683,11.683,0,0,0-4.268-6.013,11,11,0,0,0-10.359-1.418,10.88,10.88,0,0,0,0,20.375,11.029,11.029,0,0,0,5.717.53,10.718,10.718,0,0,0,4.673-1.963,11.714,11.714,0,0,0,4.268-6c.514-1.729.514-2.773.67-2.757a5.951,5.951,0,0,1,0,2.9,11.574,11.574,0,0,1-4.175,6.776,12.058,12.058,0,0,1-5.094,2.368,12.275,12.275,0,0,1-12.244-19.362,12.011,12.011,0,0,1,5.764-4.268,12.259,12.259,0,0,1,6.48-.467,11.885,11.885,0,0,1,5.094,2.383,11.558,11.558,0,0,1,4.175,6.76,6.062,6.062,0,0,1-.031,2.913Z" transform="translate(-181.76 161.466)" fill="#2a9f4b"/>
      <path id="Path_161" data-name="Path 161" d="M471.245,383.871a8.582,8.582,0,0,0,2.072-.592,5.312,5.312,0,0,0,3.115-4.813,5.125,5.125,0,0,0-1.745-3.77,5.031,5.031,0,0,0-2.118-1.106,5.6,5.6,0,0,0-1.262-.14h-1.433l-13.241.125c-19.6.14-46.731.234-76.593.234a4.673,4.673,0,0,0-.5,9.222h25.593l34.441.171,23.226.265,6.309.156a12.2,12.2,0,0,1,2.2.156,11.106,11.106,0,0,1-2.2.171l-6.309.156-23.226.249-34.441.171H379.387a6.239,6.239,0,1,1,.654-12.462c29.908,0,57,.078,76.593.234l13.241.125h1.433a5.685,5.685,0,1,1,.576,11.356C471.432,383.917,471.245,383.9,471.245,383.871Z" transform="translate(-185.436 143.432)" fill="#2a9f4b"/>
      <path id="Path_162" data-name="Path 162" d="M471.268,398.3a10.907,10.907,0,0,0,2.072-.592,5.516,5.516,0,0,0,1.978-1.558,5.3,5.3,0,0,0,1.075-3.224,5.124,5.124,0,0,0-1.745-3.77,5.219,5.219,0,0,0-3.38-1.246h-1.433l-13.241.125c-19.6.14-46.731.234-76.593.234a4.648,4.648,0,0,0-.5,9.268H405.1l34.441.171,23.226.249,6.309.156a9.761,9.761,0,0,1,2.2.171,12.194,12.194,0,0,1-2.2.156l-6.309.156-23.226.249-34.441.187H379.347A6.239,6.239,0,0,1,380,386.573c29.908,0,57,.093,76.593.234l13.241.125h1.433a5.731,5.731,0,0,1,1.464.2,5.561,5.561,0,0,1,2.43,1.355,5.717,5.717,0,0,1,.545,7.789,5.623,5.623,0,0,1-2.227,1.558,5.731,5.731,0,0,1-1.636.343,1.791,1.791,0,0,1-.576.125Z" transform="translate(-185.458 151.525)" fill="#2a9f4b"/>
      <path id="Path_163" data-name="Path 163" d="M480.027,335.86c0,.452-27.9.81-62.309.81s-62.309-.358-62.309-.81,27.9-.81,62.309-.81S480.027,335.408,480.027,335.86Z" transform="translate(-195.51 122.794)" fill="#2a9f4b"/>
    </g>
    <g id="freepik--character-2--inject-88" transform="translate(727.591 294.807)">
      <circle id="Ellipse_3" data-name="Ellipse 3" cx="156.332" cy="156.332" r="156.332" transform="translate(12.344 221.088) rotate(-45)" fill="#f5f5f5"/>
      <path id="Path_164" data-name="Path 164" d="M511,398.309v-5.655a36.462,36.462,0,0,1,.187-4.315,153.437,153.437,0,0,1,10.67-47.978,151.416,151.416,0,0,1,10.9-22.088,158.577,158.577,0,0,1,39.706-44.582A156.411,156.411,0,0,1,678.8,242.07,158.451,158.451,0,0,1,699.811,245a169.218,169.218,0,0,1,20.951,5.951,157.127,157.127,0,0,1,72.9,54.629,153.014,153.014,0,0,1,12.789,20.562c.9,1.823,1.916,3.6,2.726,5.483l2.539,5.608c1.558,3.816,3.115,7.633,4.33,11.574a153.181,153.181,0,0,1,6.044,24.238,156.46,156.46,0,0,1,0,50.47,151.946,151.946,0,0,1-5.966,24.3c-1.246,3.941-2.8,7.789-4.315,11.589a105.959,105.959,0,0,1-5.265,11.075,154.788,154.788,0,0,1-12.789,20.577A157.1,157.1,0,0,1,720.84,545.7a169.227,169.227,0,0,1-20.951,5.951,158.747,158.747,0,0,1-61.421.654,156,156,0,0,1-65.923-29.363,158.092,158.092,0,0,1-39.737-44.613,150.634,150.634,0,0,1-10.9-22.089,153.462,153.462,0,0,1-10.67-47.962c-.14-1.558-.156-3.116-.187-4.315s0-2.274,0-3.115v-2.539s0,.857.109,2.539c0,.841,0,1.885.094,3.115s.078,2.679.234,4.315a154.037,154.037,0,0,0,10.9,47.822,150.181,150.181,0,0,0,10.9,21.995,158,158,0,0,0,39.659,44.364A156.911,156.911,0,0,0,699.8,550.9a165.194,165.194,0,0,0,20.858-5.95,156.3,156.3,0,0,0,72.527-54.4,154.071,154.071,0,0,0,12.711-20.468c1.916-3.583,3.552-7.306,5.234-11.029a93.931,93.931,0,0,0,4.3-11.527,152.226,152.226,0,0,0,5.935-24.145,167.969,167.969,0,0,0,2.041-25.095,170.426,170.426,0,0,0-2.041-25.11,151.421,151.421,0,0,0-5.935-24.113c-1.246-3.941-2.8-7.789-4.315-11.527-.841-1.869-1.667-3.723-2.508-5.577s-1.822-3.629-2.726-5.452A154.092,154.092,0,0,0,793.1,306.061a156.255,156.255,0,0,0-72.512-54.38,164.488,164.488,0,0,0-20.858-5.951,158.437,158.437,0,0,0-61.125-.717,156.115,156.115,0,0,0-65.7,29.145,158.076,158.076,0,0,0-39.675,44.364,149.527,149.527,0,0,0-10.9,22.011,153.748,153.748,0,0,0-10.9,47.822c-.156,1.636-.2,3.115-.234,4.315s0,2.274-.094,3.115A20.8,20.8,0,0,1,511,398.309Z" transform="translate(-433.98 -177.21)" fill="#263238"/>
      <path id="Path_165" data-name="Path 165" d="M599.044,358.6l-7.913.343-28.537,61.935L517.42,443.371l2.15,23.226s55.564-10.25,69.412-17.992,31.513-58.134,31.513-58.134c.094.358-18.693-31.871-18.693-31.871" transform="translate(-430.399 -111.985)" fill="#ffbf9d"/>
      <path id="Path_166" data-name="Path 166" d="M535.941,397.49l-5.779-6.075a6.589,6.589,0,0,0-3.739-1.044l-18.334.561a11.465,11.465,0,0,0-8.474,5.14l-6.667,11.34s-4.486,7.789-3.91,9.642a3.349,3.349,0,0,0,3.863,2.337s.639,3.583,1.838,4.315a5.624,5.624,0,0,0,4.455.28,3.77,3.77,0,0,0,3.614,2.181,3.6,3.6,0,0,0,.95-.171c2.165-.654,3.115-4.876,3.115-4.876l9.346-1.714s13.35,8.926,18.054,14.767S551.3,435.56,551.3,435.56l4.673-22.042Z" transform="translate(-446.257 -94.268)" fill="#ffbf9d"/>
      <path id="Path_167" data-name="Path 167" d="M521.047,396.67a13.9,13.9,0,0,1-4,.67c-2.523.28-6.106.389-10.125.9l.436-.312a38.063,38.063,0,0,1-2.383,4.377,48.757,48.757,0,0,1-8.817,10.437,16.9,16.9,0,0,1-4.673,3.287c-.109-.156,1.558-1.449,4.035-3.894a59.847,59.847,0,0,0,8.4-10.437,41.722,41.722,0,0,0,2.352-4.237l.125-.3h.312c4.128-.467,7.7-.421,10.219-.5a19.33,19.33,0,0,1,4.128,0Z" transform="translate(-444.868 -90.815)" fill="#ff9a6c"/>
      <path id="Path_168" data-name="Path 168" d="M519.3,402.423a9.1,9.1,0,0,1-3.443.919,26.79,26.79,0,0,1-8.973-.312l.654-.374a32.155,32.155,0,0,1-1.34,3.318,27.931,27.931,0,0,1-6.885,9.05,11.776,11.776,0,0,1-3.941,2.586c-.094-.156,1.355-1.184,3.38-3.115a32.384,32.384,0,0,0,6.4-8.957,31.184,31.184,0,0,0,1.309-3.115l.187-.483.467.109C513.986,403.451,519.267,402.033,519.3,402.423Z" transform="translate(-442.699 -87.814)" fill="#ff9a6c"/>
      <path id="Path_169" data-name="Path 169" d="M540.356,408.63l-16.34-7.6a17.429,17.429,0,0,0-7.119-2.118,17.011,17.011,0,0,0-7.57,2.523l-8.8,4.549a2.149,2.149,0,0,0-1.168,1.044,2.009,2.009,0,0,0,.763,1.869,12.945,12.945,0,0,0,17.026.685,35.017,35.017,0,0,0,5.514,10.9c2.648,3.115,6.745,5.327,10.779,4.6" transform="translate(-440.484 -89.504)" fill="#ffbf9d"/>
      <path id="Path_170" data-name="Path 170" d="M533.652,425.234a2.052,2.052,0,0,1-.452.14,6,6,0,0,1-1.324.156,10.515,10.515,0,0,1-4.922-1.2,15.313,15.313,0,0,1-5.795-5.281,43.022,43.022,0,0,1-4.284-9.113l.826.2a12.976,12.976,0,0,1-9.518,2.975,13.584,13.584,0,0,1-5.312-1.48A12.726,12.726,0,0,1,500.52,410a6.93,6.93,0,0,1-1.059-1.075,2.15,2.15,0,0,1-.467-1.776,2.056,2.056,0,0,1,.981-1.231c.39-.234.717-.389,1.059-.576l2.041-1.044,3.988-2.056a36.26,36.26,0,0,1,7.882-3.443,12.181,12.181,0,0,1,7.789,1.184c2.212,1.013,4.19,1.994,6.044,2.866l8.708,4.253a20.594,20.594,0,0,1,3.115,1.7,19.688,19.688,0,0,1-3.3-1.293l-8.864-3.91-6.044-2.742a11.217,11.217,0,0,0-7.15-1.012,36.537,36.537,0,0,0-7.586,3.4l-3.972,2.072-2.041,1.059c-.7.358-1.418.7-1.449,1.059a2.924,2.924,0,0,0,1.168,1.713,11.011,11.011,0,0,0,2.118,1.48,13.039,13.039,0,0,0,4.86,1.386,12.135,12.135,0,0,0,8.77-2.648l.561-.483.249.7a44.959,44.959,0,0,0,4.019,9,15.407,15.407,0,0,0,5.374,5.218,11.745,11.745,0,0,0,6.34,1.433Z" transform="translate(-440.697 -89.673)" fill="#ff9a6c"/>
      <path id="Path_171" data-name="Path 171" d="M683.3,301.252c1.012-12.649,3.863-25.142,4.237-37.821s-2.072-26.107-10.281-35.827-23.366-14.191-34.145-7.555l-2.851,10.624c.748,49.115-3.115,98.712-2.414,147.827.094,6.449,4.907,12.6,7.446,18.552s8.053,11.06,14.5,11.107c8.443,0,14.549-8.1,17.7-15.92C688.881,363.9,680.8,331.768,683.3,301.252Z" transform="translate(-363.281 -191.016)" fill="#263238"/>
      <path id="Path_172" data-name="Path 172" d="M657.42,232.3a35.6,35.6,0,0,0-5.857-9.159,12.15,12.15,0,0,0-9.736-4.019,5.016,5.016,0,0,0-4.143,2.633,2.711,2.711,0,0,0,2.088,3.785l.343.327q5.358,5.421,10.9,10.624a9.829,9.829,0,0,0,3.115,2.212,3.443,3.443,0,0,0,3.6-.5C659.211,236.7,658.355,234.18,657.42,232.3Z" transform="translate(-363.457 -189.788)" fill="#2a9f4b"/>
      <path id="Path_173" data-name="Path 173" d="M693.026,245.986c-11.574-16.278-27.93-26.31-47.838-28.039-11.231-.95-16.044,1.075-24.285,2.71a35.593,35.593,0,0,0-21.138,12.01c-6.231,7.788-11.73,16.543-13.49,26.372a85.831,85.831,0,0,0-.327,28.444,112.637,112.637,0,0,0,12.929,34.488l17.135,3.271c14.315,1.464,28.818,2.913,43.008.592s28.273-8.91,36.591-20.64C707.123,288.932,704.6,262.28,693.026,245.986Z" transform="translate(-392.754 -190.566)" fill="#263238"/>
      <path id="Path_174" data-name="Path 174" d="M668.65,240.517,634.972,224.41l-9.112.436c-20.344-1.308-35.828,20.172-37.152,36.638-1.386,18.3-2.368,40.7-.374,54.4,4,27.525,27.011,31.357,27.011,31.357S613.9,361.66,613.1,370.757l53.243-.218,10.9-120.115a9.658,9.658,0,0,0-8.6-9.907Z" transform="translate(-391.479 -186.825)" fill="#ffbf9d"/>
      <path id="Path_175" data-name="Path 175" d="M618.773,282.75a5.731,5.731,0,0,0-1.745-3.692,5.95,5.95,0,0,0-7.134-.9,7.929,7.929,0,0,0-3.5,7.228h0a7.2,7.2,0,0,0,4.938,3.333,9.647,9.647,0,0,0,.966.094,6.449,6.449,0,0,0,4.455-1.433,5.685,5.685,0,0,0,2.025-4.626Z" transform="translate(-380.794 -157.295)" fill="#ff9a6c"/>
      <path id="Path_176" data-name="Path 176" d="M591.85,265.4a3.521,3.521,0,0,0,3.349,3.6,3.365,3.365,0,0,0,3.676-3.115,3.536,3.536,0,0,0-3.349-3.614,3.38,3.38,0,0,0-3.676,3.131Z" transform="translate(-388.889 -165.721)" fill="#263238"/>
      <path id="Path_177" data-name="Path 177" d="M591.768,255.643c.436.467,3.115-1.558,6.916-1.418s6.542,1.994,6.963,1.558c.2-.2-.234-1.028-1.433-1.932a9.611,9.611,0,0,0-5.561-1.791,9.346,9.346,0,0,0-5.514,1.7C591.97,254.615,591.565,255.441,591.768,255.643Z" transform="translate(-388.962 -171.405)" fill="#263238"/>
      <path id="Path_178" data-name="Path 178" d="M609.482,285.746c0-.218-2.337-.654-6.153-1.2-.966-.109-1.885-.312-2.041-.981a4.922,4.922,0,0,1,.685-2.851q1.418-3.5,2.96-7.337c4.112-10.452,7.1-19.035,6.682-19.207s-4.1,8.178-8.209,18.693l-2.835,7.384a5.624,5.624,0,0,0-.561,3.8,2.492,2.492,0,0,0,1.558,1.433,6.23,6.23,0,0,0,1.651.249C607.067,285.917,609.4,285.964,609.482,285.746Z" transform="translate(-384.401 -170.229)" fill="#263238"/>
      <path id="Path_179" data-name="Path 179" d="M605.452,306.586a69.879,69.879,0,0,0,36.933-9.346s-10.063,18.926-37.525,16Z" transform="translate(-381.633 -146.207)" fill="#ff9a6c"/>
      <path id="Path_180" data-name="Path 180" d="M617.562,276.21c-.623,0-.685,4.081-4.237,6.947s-7.944,2.368-7.975,2.944c0,.265.966.81,2.82.888a10.219,10.219,0,0,0,6.651-2.228,8.879,8.879,0,0,0,3.287-5.826C618.279,277.223,617.843,276.194,617.562,276.21Z" transform="translate(-381.359 -157.936)" fill="#263238"/>
      <path id="Path_181" data-name="Path 181" d="M593.171,247.064c.639.935,3.536.358,6.932.685s6.231,1.246,6.948.436c.327-.4,0-1.308-1.184-2.259a10.764,10.764,0,0,0-11.184-.9C593.389,245.772,592.937,246.613,593.171,247.064Z" transform="translate(-388.185 -175.973)" fill="#263238"/>
      <path id="Path_182" data-name="Path 182" d="M619.211,266.135a3.552,3.552,0,0,1-3.583,3.38,3.365,3.365,0,0,1-3.458-3.365,3.52,3.52,0,0,1,3.567-3.38,3.38,3.38,0,0,1,3.474,3.365Z" transform="translate(-377.556 -165.432)" fill="#263238"/>
      <path id="Path_183" data-name="Path 183" d="M629.6,257.106c-.452.436-3.022-1.667-6.807-1.854s-6.652,1.558-7.041,1.09c-.2-.218.3-1.028,1.558-1.838a9.642,9.642,0,0,1,5.67-1.449,9.346,9.346,0,0,1,5.39,2.056C629.479,256.093,629.837,256.9,629.6,257.106Z" transform="translate(-375.58 -170.858)" fill="#263238"/>
      <path id="Path_184" data-name="Path 184" d="M628.857,249.321c-.779.826-3.661-.218-7.165-.436s-6.527.249-7.165-.685c-.28-.452.234-1.293,1.558-2.041a11.528,11.528,0,0,1,11.558.9C628.857,248.013,629.216,248.916,628.857,249.321Z" transform="translate(-376.283 -175.333)" fill="#263238"/>
      <path id="Path_185" data-name="Path 185" d="M639.944,273.072c0-2.056,2.461-6.838,4.486-7.134,5.405-.763,15.125-.218,15.047,13.49-.125,18.693-18.911,14.752-18.942,14.222S639.835,280.175,639.944,273.072Z" transform="translate(-362.072 -163.786)" fill="#ffbf9d"/>
      <path id="Path_186" data-name="Path 186" d="M643.678,284.59c.078,0,.327.234.872.5a3.256,3.256,0,0,0,2.43,0c1.994-.716,3.676-3.848,3.785-7.228a10.794,10.794,0,0,0-.872-4.673,3.816,3.816,0,0,0-2.446-2.523,1.651,1.651,0,0,0-1.932.888c-.249.514-.14.888-.234.919s-.405-.312-.249-1.075a2.056,2.056,0,0,1,.748-1.184,2.4,2.4,0,0,1,1.807-.452,4.673,4.673,0,0,1,3.4,2.913,11.184,11.184,0,0,1,1.09,5.234c-.14,3.77-2.1,7.29-4.813,8.069a3.474,3.474,0,0,1-2.975-.53C643.709,285.057,643.6,284.636,643.678,284.59Z" transform="translate(-359.996 -161.549)" fill="#ff9a6c"/>
      <path id="Path_187" data-name="Path 187" d="M664.415,290.124l-5.078,4.6c-19.144-20.982-55.813-72.761-53.788-69.677a59.894,59.894,0,0,1,29.472-1.2c15.032,3.629,43.383,13.209,41.731,31.154S664.415,290.124,664.415,290.124Z" transform="translate(-381.293 -187.863)" fill="#263238"/>
      <path id="Path_188" data-name="Path 188" d="M690.477,288.429a5.171,5.171,0,0,0-.218-1.106,17.321,17.321,0,0,0-1.075-3.022,27.04,27.04,0,0,0-7.2-9.346,51.4,51.4,0,0,0-15.188-8.614c-6.106-2.446-13.022-4.5-19.736-7.944a91.479,91.479,0,0,1-17.727-11.574,96.3,96.3,0,0,1-12.244-12.259,100.728,100.728,0,0,1-6.916-9.44c-.685-1.09-1.246-1.994-1.7-2.695a5.242,5.242,0,0,0-.639-.919,4.677,4.677,0,0,0,.483,1.013c.343.654.826,1.558,1.558,2.8A85.062,85.062,0,0,0,616.594,235a91.332,91.332,0,0,0,12.2,12.462,89.4,89.4,0,0,0,17.867,11.745c6.792,3.474,13.77,5.514,19.83,7.913a51.562,51.562,0,0,1,15.079,8.318,27.914,27.914,0,0,1,7.306,8.941C690.056,286.934,690.368,288.445,690.477,288.429Z" transform="translate(-379.971 -188.443)" fill="#455a64"/>
      <path id="Path_189" data-name="Path 189" d="M684.626,289.534a9.768,9.768,0,0,0-.436-4.112,19.113,19.113,0,0,0-6.418-9.346c-3.692-3.115-9.144-5.343-15.156-7.165a91.192,91.192,0,0,1-18.911-7.368,82,82,0,0,1-16.527-11.823,83.85,83.85,0,0,1-11.029-12.462,89.485,89.485,0,0,1-5.982-9.518c-.576-1.09-1.028-1.994-1.4-2.71a4.066,4.066,0,0,0-.545-.919,4.234,4.234,0,0,0,.374,1c.327.732.732,1.667,1.246,2.8a74.012,74.012,0,0,0,5.748,9.736A80.907,80.907,0,0,0,626.57,250.42a79.719,79.719,0,0,0,16.668,12.01,89.817,89.817,0,0,0,19.16,7.415c6,1.76,11.34,3.816,14.969,6.838a19.238,19.238,0,0,1,6.5,8.848,21.818,21.818,0,0,1,.763,4Z" transform="translate(-379.759 -186.993)" fill="#455a64"/>
      <path id="Path_190" data-name="Path 190" d="M641.53,318.578c0-.125,1.558-.234,4.424-.763a26.887,26.887,0,0,0,10.9-5.125,37.775,37.775,0,0,0,10.7-14.175,65.612,65.612,0,0,0,5.5-21.263,50.236,50.236,0,0,0-2.539-21.683,54.258,54.258,0,0,0-8.645-15.717c-6.418-8.069-12.01-11.512-11.776-11.761a4.192,4.192,0,0,1,1,.608c.623.452,1.558,1.044,2.695,1.978a57.257,57.257,0,0,1,8.77,8.63,53.146,53.146,0,0,1,9.035,15.889,54.787,54.787,0,0,1,2.539,10.53,55.822,55.822,0,0,1,.156,11.652,65.034,65.034,0,0,1-5.7,21.621,37.744,37.744,0,0,1-11.2,14.378,25.857,25.857,0,0,1-11.278,4.907,23.788,23.788,0,0,1-3.349.311,4.021,4.021,0,0,1-1.231-.016Z" transform="translate(-361.181 -184.773)" fill="#455a64"/>
      <path id="Path_191" data-name="Path 191" d="M609.246,316.678l51.934-5.608,9.5,8.645-37.074,21.792-16.356,8.474L601.1,345.075l-5.109-9.627Z" transform="translate(-386.58 -138.494)" fill="#ffbf9d"/>
      <path id="Path_192" data-name="Path 192" d="M559.57,379.827s16.278-31.248,20.25-38.071c6.869-11.636,19.689-18.225,19.689-18.225l30-6.932s-3.115,15.032,15.577,16.06c23.755,1.324,38.491-21.45,38.491-21.45s27.135,2.788,34.612,5.9,28.647,11.994,31.746,40.142l7.259,45.937-57.246,4.362.794,61.156.28,34.877c-25.562,10.639-63.7,16.73-99.46,7.15-2.165-.592-1.044-25.438-6.028-50.859l-9.44-22.82a88.792,88.792,0,0,1-6.667-28.771c-.358-6.511-.187-11.434-.187-11.434S564.555,391.76,559.57,379.827Z" transform="translate(-406.892 -138.416)" fill="#2a9f4b"/>
      <path id="Path_193" data-name="Path 193" d="M589.435,457.065l95.971-28.8-.685-53.85,48.866-3.723s-3.894,27.9-4.471,42.214c-.81,20.577-10.717,49.348-17.337,55.439s-124.9,12.742-124.9,12.742Z" transform="translate(-391.66 -105.242)" fill="#ffbf9d"/>
      <path id="Path_194" data-name="Path 194" d="M557.482,450.2a3.785,3.785,0,0,0,3.77,1.869,6.136,6.136,0,0,0,.935-.265c2.1-.872,1.558-5.25,1.558-5.25l10.219-2.492s14.113,7.633,19.347,13.022,17.135-.234,17.135-.234l2.524-22.369-20.391-15.749s1.246.935-.312-2.181-7.461-1.433-7.461-1.433c-1.044-1.558-5-1.791-5-1.791l-16.559,3.209a11.48,11.48,0,0,0-7.96,5.919l-6.231,11.714s-3.115,8.349-2.352,10.172a3.318,3.318,0,0,0,4.05,1.885s1.231,5.234,2.648,5.312a11.419,11.419,0,0,0,4.05-1.309Z" transform="translate(-414.135 -81.461)" fill="#ffbf9d"/>
      <path id="Path_195" data-name="Path 195" d="M586.822,425.192c0,.187-2.243.156-5.795.576a50.925,50.925,0,0,0-13.427,3.614,46.885,46.885,0,0,0-6.792,3.552c-1.932,1.293-3.972,2.383-4.5,3.91a2.024,2.024,0,0,0,.343,1.963,2.945,2.945,0,0,0,1.34.981,4.5,4.5,0,0,0,1.48.093,1.728,1.728,0,0,1-1.558.3,3.116,3.116,0,0,1-1.7-.981,2.68,2.68,0,0,1-.592-2.586,5.311,5.311,0,0,1,1.9-2.508c.857-.67,1.76-1.355,2.773-2.009a44.313,44.313,0,0,1,6.916-3.692,43.618,43.618,0,0,1,13.77-3.38,19.519,19.519,0,0,1,5.841.171Z" transform="translate(-409.158 -75.021)" fill="#ff9a6c"/>
      <path id="Path_196" data-name="Path 196" d="M587.687,431.955c0,.327-6.807.561-15.125,1.7s-14.954,2.679-15.032,2.368a17.505,17.505,0,0,1,4.268-1.386,98.517,98.517,0,0,1,10.624-2.041,92.681,92.681,0,0,1,10.779-.841,17.13,17.13,0,0,1,4.486.2Z" transform="translate(-408.029 -71.222)" fill="#ff9a6c"/>
      <path id="Path_197" data-name="Path 197" d="M553.884,446.586a8.409,8.409,0,0,1-.343-1.76,39.686,39.686,0,0,1-.389-4.891,20.65,20.65,0,0,1,.2-3.427,10.591,10.591,0,0,1,1.355-3.77,22.974,22.974,0,0,1,5.764-6.885,31.158,31.158,0,0,1,7.68-4.673,28.819,28.819,0,0,1,7.119-1.651c2.072-.234,3.738-.327,4.891-.374a5.959,5.959,0,0,1,1.791,0,55.506,55.506,0,0,1-6.573,1.075,30.783,30.783,0,0,0-6.885,1.838,32.911,32.911,0,0,0-7.368,4.564,23.023,23.023,0,0,0-5.577,6.558,12.744,12.744,0,0,0-1.667,6.7C553.822,444.015,554.118,446.57,553.884,446.586Z" transform="translate(-410.474 -78.251)" fill="#ff9a6c"/>
      <path id="Path_198" data-name="Path 198" d="M577.7,416.106c0,.156-2.477.421-6.433,1.184s-9.923,1.651-13.022,7.212c-3.411,5.125-6.231,9.923-7.415,13.755a34.447,34.447,0,0,0-1.09,6.387,4.676,4.676,0,0,1-.234-1.776,16.639,16.639,0,0,1,.608-4.813c.966-4.035,3.816-9,7.259-14.144a18.172,18.172,0,0,1,2.991-3.536,11.718,11.718,0,0,1,3.785-2.15,34.987,34.987,0,0,1,6.994-1.667,25.93,25.93,0,0,1,6.558-.452Z" transform="translate(-412.511 -79.938)" fill="#ff9a6c"/>
      <path id="Path_199" data-name="Path 199" d="M589.546,453.933a5.573,5.573,0,0,1-1.059-.67l-2.96-2.041a117.037,117.037,0,0,0-11.558-6.7h.234L564,447.1l.327-.467a10.649,10.649,0,0,1,0,2.539,4.766,4.766,0,0,1-.981,2.586,2.617,2.617,0,0,1-1.324.732,3.752,3.752,0,0,1-1.449.2,4.284,4.284,0,0,1-2.679-1.231,4.41,4.41,0,0,1-.5-.576l-.109-.156v-.078h0l.623.171h0l-.312.156c-.436.2-.857.405-1.309.576a12.052,12.052,0,0,1-1.386.467,6,6,0,0,1-.763.14,1.728,1.728,0,0,1-.966-.109,2.975,2.975,0,0,1-1.122-1.293,9.212,9.212,0,0,1-.623-1.386,25.4,25.4,0,0,1-.888-2.866l.639.374a3.91,3.91,0,0,1-3.957-1.028,3.115,3.115,0,0,1-.872-2.025,9.5,9.5,0,0,1,.2-2.025,58.049,58.049,0,0,1,2.274-7.664h0l3.3-6.231q1.059-2.009,2.1-3.972a21.28,21.28,0,0,1,2.337-3.863,10.9,10.9,0,0,1,3.552-2.773,14.7,14.7,0,0,1,4.19-1.215l15.577-2.991h.125a15.262,15.262,0,0,1,2.819.514,4.673,4.673,0,0,1,2.524,1.558l-.592-.14a5.8,5.8,0,0,1,5.39-.109,6.729,6.729,0,0,1,2.975,4.019l-.14-.2,14.02,10.779,3.785,2.991a9.069,9.069,0,0,1,1.277,1.09,9.14,9.14,0,0,1-1.418-.919l-3.91-2.8c-3.458-2.555-8.3-6.137-14.253-10.5l-.094-.078v-.14a6,6,0,0,0-2.617-3.489,4.953,4.953,0,0,0-4.548.156l-.343.187-.249-.327a3.8,3.8,0,0,0-2.041-1.106,13.14,13.14,0,0,0-2.617-.467h.093L564.5,417.218a13.616,13.616,0,0,0-3.925,1.137,10.079,10.079,0,0,0-3.209,2.523,20.256,20.256,0,0,0-2.212,3.676l-2.088,3.972-3.318,6.231h0a58.441,58.441,0,0,0-2.243,7.493,9.161,9.161,0,0,0-.2,1.791,2.181,2.181,0,0,0,.607,1.371,2.9,2.9,0,0,0,2.9.732l.514-.125.125.5a26.9,26.9,0,0,0,.841,2.757,5.1,5.1,0,0,0,1.246,2.15,1.557,1.557,0,0,0,.436,0l.623-.125a10.216,10.216,0,0,0,1.277-.421c.405-.156.826-.343,1.231-.53l.3-.14h0l.623.171h0l.093.125a2.208,2.208,0,0,0,.389.467,3.255,3.255,0,0,0,2.072.966,2.572,2.572,0,0,0,1.137-.14,1.745,1.745,0,0,0,.919-.483,6.465,6.465,0,0,0,.794-4.393v-.389l.343-.078L574,444.026h.249a101.9,101.9,0,0,1,11.465,7.025c1.277.919,2.227,1.667,2.866,2.2A6.613,6.613,0,0,1,589.546,453.933Z" transform="translate(-414.265 -81.595)" fill="#ff9a6c"/>
      <path id="Path_200" data-name="Path 200" d="M494.072,473.881l-32.2-84.522a4.86,4.86,0,0,1,4.549-6.589H569.73a4.891,4.891,0,0,1,4.408,2.788L605.09,466.2l64.926,1.09a4.86,4.86,0,0,1,4.86,4.86h0a4.86,4.86,0,0,1-4.86,4.86H498.6A4.86,4.86,0,0,1,494.072,473.881Z" transform="translate(-461.556 -98.505)" fill="#455a64"/>
      <path id="Path_201" data-name="Path 201" d="M515.362,415.426a6.776,6.776,0,1,1-6.776-6.776,6.776,6.776,0,0,1,6.776,6.776Z" transform="translate(-439.105 -84.072)" fill="#fff"/>
      <path id="Path_202" data-name="Path 202" d="M587.375,333.11c.171.093-1.386,3.006-3.567,7.789A134.959,134.959,0,0,0,572.7,380.729c-.639,5.281-.826,8.567-1.013,8.567a9.342,9.342,0,0,1-.109-2.321,51.229,51.229,0,0,1,.312-6.324,112.452,112.452,0,0,1,11.262-40.033c1.184-2.4,2.228-4.3,3.006-5.577A8.519,8.519,0,0,1,587.375,333.11Z" transform="translate(-400.209 -126.202)" fill="#263238"/>
      <path id="Path_203" data-name="Path 203" d="M709.524,400.179a6.1,6.1,0,0,1-1.184.187l-3.443.327-12.836,1.075L648.2,405.086h-.561v-.561c-.374-5.826-.763-11.979-1.168-18.3-.623-11.013-1.153-21.512-1.324-31.076a44.1,44.1,0,0,1,5.639-24.643,30.391,30.391,0,0,1,12.259-11.761,24.135,24.135,0,0,1,4.362-1.682,7.689,7.689,0,0,1,1.558-.389c0,.156-2.165.608-5.717,2.477a30.577,30.577,0,0,0-11.808,11.839,43.617,43.617,0,0,0-5.265,24.207c.218,9.533.779,20.017,1.4,31.03.389,6.324.779,12.462,1.137,18.288L648.1,404l43.9-2.913,12.851-.732,3.458-.156a5.08,5.08,0,0,1,1.215-.016Z" transform="translate(-359.219 -135.37)" fill="#263238"/>
      <path id="Path_204" data-name="Path 204" d="M626.086,409.33a7.693,7.693,0,0,1-1.916-.716,16.16,16.16,0,0,1-2.15-1.075,28.242,28.242,0,0,1-2.711-1.651,40.069,40.069,0,0,1-6.231-5.374,44.49,44.49,0,0,1-6.06-8.147,45.385,45.385,0,0,1-3.91-9.346,38.266,38.266,0,0,1-1.371-8.162,22.3,22.3,0,0,1,0-3.115,14.687,14.687,0,0,1,.171-2.383,7.134,7.134,0,0,1,.374-2.01c.234,0-.14,2.913.311,7.508a42.057,42.057,0,0,0,1.558,7.944,46.851,46.851,0,0,0,3.894,9.1,47.791,47.791,0,0,0,5.826,8.007,42.54,42.54,0,0,0,6.013,5.421C623.516,407.96,626.2,409.112,626.086,409.33Z" transform="translate(-383.403 -107.105)" fill="#263238"/>
    </g>
    <g id="freepik--Screen--inject-88" transform="translate(741.259 143.019)">
      <g id="Group_43" data-name="Group 43" transform="translate(23.428 59.459)" opacity="0.3">
        <rect id="Rectangle_48" data-name="Rectangle 48" width="140.833" height="270.778" rx="11.73" transform="translate(140.833 270.778) rotate(180)"/>
      </g>
      <rect id="Rectangle_49" data-name="Rectangle 49" width="140.833" height="289.58" rx="14.43" transform="translate(159.043 323.429) rotate(180)" fill="#fff"/>
      <path id="Path_205" data-name="Path 205" d="M510.148,124.56h84.459A28.039,28.039,0,0,1,622.646,152.6v84.117a40.656,40.656,0,0,1-40.656,40.656H522.8a40.641,40.641,0,0,1-40.656-40.656V152.6a28.039,28.039,0,0,1,28.008-28.039Z" transform="translate(-463.743 -90.726)" fill="#f5f5f5"/>
      <rect id="Rectangle_50" data-name="Rectangle 50" width="118.916" height="27.525" rx="6.96" transform="translate(26.949 80.659)" fill="#e0e0e0"/>
      <path id="Path_206" data-name="Path 206" d="M552.088,139.39a2.648,2.648,0,1,1-2.648,2.648A2.648,2.648,0,0,1,552.088,139.39Z" transform="translate(-426.209 -82.455)" fill="#263238"/>
      <path id="Path_207" data-name="Path 207" d="M556.948,139.39a2.648,2.648,0,1,1-2.648,2.648A2.648,2.648,0,0,1,556.948,139.39Z" transform="translate(-423.498 -82.455)" fill="#263238"/>
      <circle id="Ellipse_4" data-name="Ellipse 4" cx="2.648" cy="2.648" r="2.648" transform="translate(138.434 56.935)" fill="#263238"/>
      <path id="Path_208" data-name="Path 208" d="M494.666,138.64l-3.193,3.287a.982.982,0,0,0,0,1.386l3.193,2.633a.982.982,0,0,0,1.371,0,.966.966,0,0,0,0-1.371l-3.193-2.648v1.386l3.193-3.3a.966.966,0,0,0,0-1.371A.981.981,0,0,0,494.666,138.64Z" transform="translate(-458.698 -83.029)" fill="#263238"/>
      <path id="Path_209" data-name="Path 209" d="M497.958,164.482a2.243,2.243,0,0,1-4,1.4,2.29,2.29,0,0,1-.171-2.555,2.243,2.243,0,0,1,4.175,1.153.592.592,0,0,0,1.168,0,3.474,3.474,0,0,0-2.243-3.209,3.415,3.415,0,1,0,2.243,3.209.592.592,0,0,0-1.168,0Z" transform="translate(-458.08 -70.364)" fill="#263238"/>
      <path id="Path_210" data-name="Path 210" d="M495.518,165.217l1.075,1.184.156.171a.561.561,0,0,0,.405.171.576.576,0,0,0,.421-.171.607.607,0,0,0,0-.826l-1.075-1.184-.156-.171a.561.561,0,0,0-.405-.171.623.623,0,0,0-.421.171.608.608,0,0,0,0,.826Z" transform="translate(-456.372 -68.607)" fill="#263238"/>
      <path id="Path_211" data-name="Path 211" d="M500.173,191.654h-7.025a5.312,5.312,0,0,1-5.327-5.312h0a5.327,5.327,0,0,1,5.327-5.312h7.025a5.312,5.312,0,0,1,5.312,5.312h0A5.312,5.312,0,0,1,500.173,191.654Z" transform="translate(-460.575 -59.231)" fill="#2a9f4b"/>
      <path id="Path_212" data-name="Path 212" d="M566.143,191.67H559.1a5.312,5.312,0,0,1-5.312-5.312h0A5.312,5.312,0,0,1,559.1,181h7.041a5.312,5.312,0,0,1,5.312,5.312h0a5.312,5.312,0,0,1-5.312,5.359Z" transform="translate(-423.783 -59.248)" fill="#e0e0e0"/>
      <path id="Path_213" data-name="Path 213" d="M537.912,191.67h-29a5.312,5.312,0,0,1-5.327-5.312h0A5.327,5.327,0,0,1,508.907,181h29a5.312,5.312,0,0,1,5.312,5.312h0a5.312,5.312,0,0,1-5.312,5.359Z" transform="translate(-451.786 -59.248)" fill="#ebebeb"/>
      <path id="Path_214" data-name="Path 214" d="M555.394,191.654H537.262a5.312,5.312,0,0,1-5.312-5.312h0a5.312,5.312,0,0,1,5.312-5.312h18.132a5.327,5.327,0,0,1,5.327,5.312h0a5.312,5.312,0,0,1-5.327,5.312Z" transform="translate(-435.963 -59.231)" fill="#455a64"/>
      <rect id="Rectangle_51" data-name="Rectangle 51" width="31.933" height="7.851" rx="2.52" transform="translate(36.046 234.125)" fill="#2a9f4b"/>
      <path id="Path_215" data-name="Path 215" d="M565.136,292.8a5.343,5.343,0,1,1-5.343-5.343,5.343,5.343,0,0,1,5.343,5.343Z" transform="translate(-423.415 0.126)" fill="#2a9f4b"/>
      <path id="Path_216" data-name="Path 216" d="M555.3,292.8a5.359,5.359,0,1,1-5.359-5.343A5.359,5.359,0,0,1,555.3,292.8Z" transform="translate(-428.919 0.126)" fill="#2a9f4b"/>
      <path id="Path_217" data-name="Path 217" d="M544.686,292.8a5.343,5.343,0,1,1-5.343-5.343,5.343,5.343,0,0,1,5.343,5.343Z" transform="translate(-434.82 0.126)" fill="#2a9f4b"/>
      <path id="Path_218" data-name="Path 218" d="M577.5,277.636H535.438a2.508,2.508,0,0,1-2.508-2.508h0a2.508,2.508,0,0,1,2.508-2.508H577.5a2.508,2.508,0,0,1,2.492,2.508h0A2.508,2.508,0,0,1,577.5,277.636Z" transform="translate(-435.417 -8.15)" fill="#263238"/>
      <path id="Path_219" data-name="Path 219" d="M577.5,284.3H535.438a2.508,2.508,0,0,1-2.508-2.508h0a2.523,2.523,0,0,1,2.508-2.508H577.5a2.508,2.508,0,0,1,2.492,2.508h0A2.508,2.508,0,0,1,577.5,284.3Z" transform="translate(-435.417 -4.436)" fill="#263238"/>
      <rect id="Rectangle_52" data-name="Rectangle 52" width="111.844" height="70.611" rx="6.56" transform="translate(32.182 147.75)" fill="#fff"/>
      <circle id="Ellipse_5" data-name="Ellipse 5" cx="7.461" cy="7.461" r="7.461" transform="translate(74.926 161.785)" fill="#455a64"/>
      <path id="Path_220" data-name="Path 220" d="M602.872,251.9V226.84a65.49,65.49,0,0,0-9.268-9.346c-5.545-4.393-12.244-7.321-18.942-6.6-8.677.95-16.091,7.789-21.185,15.889-2.492,3.957-5.078,8.676-9.346,9.5-3.24.639-6.433-1.324-9-3.645s-4.922-5.109-7.929-6.62c-6.028-3.115-13.007-.2-18.879,3.209a112.793,112.793,0,0,0-17.369,12.462v10.156c0,5.016,3.567,9.1,7.96,9.1h95.94C599.3,260.969,602.872,256.919,602.872,251.9Z" transform="translate(-458.83 -42.639)" fill="#455a64"/>
      <path id="Path_221" data-name="Path 221" d="M592.768,268.392a12.464,12.464,0,0,0,3.427-.7,9.97,9.97,0,0,0,3.552-2.243,9.861,9.861,0,0,0,2.788-4.954,12.7,12.7,0,0,0,.265-3.411V211.006a18.287,18.287,0,0,0-.623-6.387,9.938,9.938,0,0,0-4.066-5.016A10.079,10.079,0,0,0,595,198.341a15.828,15.828,0,0,0-3.458-.218H501.346a9.814,9.814,0,0,0-9.471,7.259,15.309,15.309,0,0,0-.343,4.253v45.937a34.988,34.988,0,0,0,.093,3.863,9.8,9.8,0,0,0,3.536,6.324,9.97,9.97,0,0,0,6.729,2.212h40.018l37.229.125,10.125.078h0l-10.125.078-37.229.125H501.891a10.732,10.732,0,0,1-7.2-2.352,10.608,10.608,0,0,1-3.816-6.776,33.994,33.994,0,0,1-.109-3.972V209.728a16.124,16.124,0,0,1,.374-4.455,10.577,10.577,0,0,1,10.25-7.789h90.067a16.528,16.528,0,0,1,3.6.249,10.124,10.124,0,0,1,3.333,1.371,10.577,10.577,0,0,1,4.33,5.359,10.347,10.347,0,0,1,.608,3.349v49.333a13.361,13.361,0,0,1-.312,3.489,10.265,10.265,0,0,1-6.589,7.275,9.764,9.764,0,0,1-2.586.53Z" transform="translate(-458.945 -50.062)" fill="#263238"/>
      <rect id="Rectangle_53" data-name="Rectangle 53" width="54.427" height="49.426" rx="8.57" transform="translate(32.011 253.503)" fill="#fff"/>
      <path id="Path_222" data-name="Path 222" d="M516.826,276.653a5.343,5.343,0,1,1-5.343-5.343,5.343,5.343,0,0,1,5.343,5.343Z" transform="translate(-450.358 -8.881)" fill="#2a9f4b"/>
      <path id="Path_223" data-name="Path 223" d="M504.592,308.523h26.964a13.724,13.724,0,0,0,13.724-13.739v-16.59a16.543,16.543,0,0,0-6.137-.981,14.02,14.02,0,0,0-8.614,3.583c-2.212,1.9-3.817,4.144-5.857,6.153a8.536,8.536,0,0,1-5.327,2.773c-5.25.358-7.446-5.436-12.462-6.558a10.14,10.14,0,0,0-6.994,1.262,19.875,19.875,0,0,0-4.782,4.221l-4.206,4.673v1.48a13.724,13.724,0,0,0,13.693,13.723Z" transform="translate(-458.858 -5.593)" fill="#2a9f4b"/>
      <path id="Path_224" data-name="Path 224" d="M532.2,315.226a11.078,11.078,0,0,0,1.869-.234,12.712,12.712,0,0,0,4.954-1.807,13.194,13.194,0,0,0,5.265-6.371c1.324-3.038.763-6.916.857-11.091s0-8.77,0-13.677a19.642,19.642,0,0,0-.826-7.415,12.867,12.867,0,0,0-4.673-6.106,13.038,13.038,0,0,0-7.789-2.29H504.239a12.913,12.913,0,0,0-8.4,3.115,12.664,12.664,0,0,0-4.253,7.617,27.335,27.335,0,0,0-.187,4.393v20.92a13.022,13.022,0,0,0,2.227,6.979,12.882,12.882,0,0,0,5.25,4.424,13.6,13.6,0,0,0,6.231,1.215l19.83.125,5.39.078h0l-5.39.078-19.83.125a14.1,14.1,0,0,1-6.511-1.215,13.505,13.505,0,0,1-7.929-11.948V281.158a26.138,26.138,0,0,1,.171-4.517,13.661,13.661,0,0,1,13.443-11.449H531.7a13.786,13.786,0,0,1,8.225,2.446,13.567,13.567,0,0,1,4.985,6.5,20,20,0,0,1,.81,7.9v19.643a14.019,14.019,0,0,1-.981,5.3,13.3,13.3,0,0,1-5.514,6.465,12.773,12.773,0,0,1-5.109,1.76A9.086,9.086,0,0,1,532.2,315.226Z" transform="translate(-459.003 -12.296)" fill="#263238"/>
      <path id="Path_225" data-name="Path 225" d="M504.037,414.331l-2.119-.078a21.808,21.808,0,0,1-6.044-1.433,21.373,21.373,0,0,1-8.256-5.748,21.98,21.98,0,0,1-5.561-12.462c-.2-2.617-.093-5.343-.14-8.225s0-5.9,0-9.066V157.588c0-3.115,0-6.231.078-9.486a25.391,25.391,0,0,1,16.7-22.291,27.821,27.821,0,0,1,9.845-1.558h87.326a44.038,44.038,0,0,1,5.343.218,25.547,25.547,0,0,1,17.82,10.764,24.831,24.831,0,0,1,4.05,9.736,57.261,57.261,0,0,1,.452,10.421V389.314a36.207,36.207,0,0,1-.421,7.228,23.46,23.46,0,0,1-2.461,6.667,21.619,21.619,0,0,1-4.331,5.421,20.746,20.746,0,0,1-5.608,3.77,21.42,21.42,0,0,1-6.231,1.869,44.269,44.269,0,0,1-6.387.234H536.655l-23.911-.078h0l23.911-.078h61.436a45,45,0,0,0,6.231-.249,20.252,20.252,0,0,0,6.231-1.838,20.563,20.563,0,0,0,5.468-3.676,21.806,21.806,0,0,0,4.206-5.3,23.051,23.051,0,0,0,2.025-6.823,37.078,37.078,0,0,0,.39-7.119V155.47a59.4,59.4,0,0,0-.452-10.281,23.989,23.989,0,0,0-3.926-9.346,24.783,24.783,0,0,0-17.353-10.421,48.82,48.82,0,0,0-5.25-.2H508.336a26.356,26.356,0,0,0-9.564,1.558,24.628,24.628,0,0,0-16.216,21.59c-.156,3.115,0,6.324-.078,9.44V176.5c0,49.084,0,93.276-.093,130.4V386.6c0,2.835-.093,5.639.093,8.194a21.809,21.809,0,0,0,5.437,12.337,21.574,21.574,0,0,0,8.131,5.764A23.614,23.614,0,0,0,504.037,414.331Z" transform="translate(-463.879 -90.902)" fill="#263238"/>
      <path id="Path_226" data-name="Path 226" d="M527.035,381.72c-.218,0-.405-15.951-.405-35.625s.187-35.625.405-35.625.4,15.935.4,35.625S527.206,381.72,527.035,381.72Z" transform="translate(-438.93 12.959)" fill="#263238"/>
      <path id="Path_227" data-name="Path 227" d="M536.081,125.71a7.57,7.57,0,1,1-7.57-7.571A7.571,7.571,0,0,1,536.081,125.71Z" transform="translate(-442.104 -94.306)" fill="#263238"/>
      <circle id="Ellipse_6" data-name="Ellipse 6" cx="7.571" cy="7.571" r="7.571" transform="translate(81.064 385.458)" fill="#263238"/>
      <path id="Path_228" data-name="Path 228" d="M470.33,103.089a9.887,9.887,0,0,1,1.168,0h3.349l12.322-.125,40.625-.125h17.135a12.026,12.026,0,0,1,11.636,8.552,13.572,13.572,0,0,1,.5,4.471v4.081c0,5.14-.094,9.346-.125,12.306V135.6a6.653,6.653,0,0,1-.078,1.168,5.129,5.129,0,0,1,0-1.168c0-.841,0-1.947-.078-3.349,0-2.991,0-7.165-.14-12.306v-4.081a13.024,13.024,0,0,0-.514-4.284,11.356,11.356,0,0,0-6.044-6.916c-3.006-1.558-6.729-.919-10.468-1.044H528.043l-40.625-.109-12.322-.125h-3.349A5.763,5.763,0,0,1,470.33,103.089Z" transform="translate(-470.33 -102.84)" fill="#263238"/>
    </g>
    <g id="freepik--speech-bubble-2--inject-88" transform="translate(1057.589 354.396)">
      <path id="Path_229" data-name="Path 229" d="M676.41,317l4.175-12.571a42.37,42.37,0,1,1,10.546,10.9h0Z" transform="translate(-673.376 -238.536)" fill="#fff"/>
      <path id="Path_230" data-name="Path 230" d="M676.436,316.941l.981-.125,2.835-.358,10.9-1.308-.094.218h0a.127.127,0,0,1,.171-.187,42.057,42.057,0,0,0,19.394,7.524,40.5,40.5,0,0,0,6.511.265,47.173,47.173,0,0,0,6.9-.857,41.936,41.936,0,0,0,5.468-80.705,42.526,42.526,0,0,0-19.191-1.994,41.3,41.3,0,0,0-17.135,6.231,42.058,42.058,0,0,0-18.319,25.671c-.125.592-.249,1.184-.389,1.76a11.676,11.676,0,0,0-.3,1.745c-.14,1.168-.265,2.321-.405,3.443a57.143,57.143,0,0,0,.078,6.558,42.23,42.23,0,0,0,6.823,19.534.234.234,0,0,1,0,.109c-1.387,4.034-2.446,7.15-3.115,9.346-.374,1.044-.639,1.854-.841,2.414s-.3.826-.3.826a2.145,2.145,0,0,1,.249-.794c.249-.53.436-1.355.763-2.4.7-2.15,1.713-5.312,3.115-9.346v.109a42.167,42.167,0,0,1-6.994-19.643,61.778,61.778,0,0,1-.109-6.62c.125-1.137.265-2.29.389-3.474a11.612,11.612,0,0,1,.312-1.76l.374-1.776a42.06,42.06,0,0,1,6.231-14.16,42.591,42.591,0,0,1,12.228-11.87,41.7,41.7,0,0,1,17.291-6.324,43.3,43.3,0,0,1,19.471,1.994,42.152,42.152,0,0,1,17.135,11.2,20.239,20.239,0,0,1,1.7,1.947l1.558,1.994,1.417,2.134a19.038,19.038,0,0,1,1.309,2.165l1.168,2.243a21.457,21.457,0,0,1,1,2.305c.312.779.67,1.558.919,2.321s.467,1.558.717,2.383a41.714,41.714,0,0,1,.857,19.16,42.37,42.37,0,0,1-33.335,33.693,48.123,48.123,0,0,1-6.979.841,41.24,41.24,0,0,1-6.573-.311,42.152,42.152,0,0,1-19.5-7.7l.171-.187h0a.125.125,0,0,1,0,.187h-.078l-11.013,1.153-2.788.3Z" transform="translate(-673.403 -238.472)" fill="#263238"/>
      <path id="Path_231" data-name="Path 231" d="M688.07,272.91l5.888-6.511,12.509,10.032,18.6-21.341,6.075,5.919-24.955,27.447Z" transform="translate(-665.222 -229.303)" fill="#2a9f4b"/>
    </g>
    <g id="freepik--character-1--inject-88" transform="translate(-15.453 30.796)">
      <g id="Group_44" data-name="Group 44" transform="translate(416.382 162.632)" opacity="0.3">
        <path id="Path_232" data-name="Path 232" d="M251.85,135.2l.327,172.33a176.442,176.442,0,0,0-.327-172.33Z" transform="translate(-251.85 -135.2)"/>
      </g>
      <circle id="Ellipse_7" data-name="Ellipse 7" cx="176.224" cy="176.224" r="176.224" transform="translate(0 249.22) rotate(-45)" fill="#f5f5f5"/>
      <path id="Path_233" data-name="Path 233" d="M31.42,254.02v-6.371a39.633,39.633,0,0,1,.218-4.86c.218-1.838.28-3.91.452-6.231s.561-4.673.888-7.415a184.1,184.1,0,0,1,3.52-18.288,176.022,176.022,0,0,1,7.166-22.2,168.39,168.39,0,0,1,12.228-24.923,178.234,178.234,0,0,1,44.753-50.252A176.017,176.017,0,0,1,220.48,77.873a173.109,173.109,0,0,1,23.693,3.4,187.189,187.189,0,0,1,23.615,6.714,176.629,176.629,0,0,1,96.578,84.724c1.028,2.056,2.165,4.066,3.115,6.231s1.9,4.19,2.851,6.231c1.713,4.3,3.474,8.6,4.876,13.054a171.56,171.56,0,0,1,6.729,27.322,175.831,175.831,0,0,1,0,56.857,171.769,171.769,0,0,1-6.729,27.338c-1.4,4.455-3.115,8.754-4.876,13.054l-2.835,6.34c-.919,2.119-2.056,4.112-3.115,6.231a173.53,173.53,0,0,1-14.409,23.194,176.879,176.879,0,0,1-82.154,61.561,187.192,187.192,0,0,1-23.646,6.667,179.528,179.528,0,0,1-69.209.732,175.929,175.929,0,0,1-74.287-33.07,178.4,178.4,0,0,1-44.753-50.236,169.276,169.276,0,0,1-12.228-24.923,174.99,174.99,0,0,1-7.166-22.182,184.962,184.962,0,0,1-3.52-18.288c-.327-2.679-.67-5.141-.888-7.415s-.312-4.33-.452-6.231-.187-3.458-.218-4.86,0-2.57,0-3.52v-2.866s0,.981.109,2.866c0,.95,0,2.118.109,3.52s.078,3.022.249,4.86.312,3.879.5,6.153.592,4.673.919,7.4c.763,5.327,1.916,11.434,3.583,18.241a178.66,178.66,0,0,0,7.228,22.12,170.384,170.384,0,0,0,12.259,24.8A178.3,178.3,0,0,0,101.112,393.9a175.524,175.524,0,0,0,74.07,32.868,178.374,178.374,0,0,0,68.929-.794,188.481,188.481,0,0,0,23.522-6.7A176.411,176.411,0,0,0,349.4,357.951a172.893,172.893,0,0,0,14.347-23.085c1-2.056,2.15-4.05,3.115-6.231l2.851-6.231c1.682-4.284,3.443-8.567,4.844-12.991a171.869,171.869,0,0,0,6.7-27.213,175.479,175.479,0,0,0,0-56.607,172.1,172.1,0,0,0-6.7-27.2c-1.4-4.424-3.115-8.708-4.844-12.991l-2.851-6.231c-.9-2.1-2.041-4.1-3.115-6.137A172.906,172.906,0,0,0,349.35,150a176.256,176.256,0,0,0-81.811-61.312,188.937,188.937,0,0,0-23.366-6.7,178.452,178.452,0,0,0-68.929-.794,175.523,175.523,0,0,0-74.069,32.868,178.093,178.093,0,0,0-44.8,49.956,169.79,169.79,0,0,0-12.259,24.923,176.974,176.974,0,0,0-7.228,22.12c-1.667,6.792-2.819,12.9-3.583,18.241-.327,2.679-.685,5.14-.919,7.4s-.343,4.315-.5,6.153-.218,3.458-.249,4.86,0,2.57-.109,3.52C31.467,253.054,31.42,254.02,31.42,254.02Z" transform="translate(41.594 -4.81)" fill="#263238"/>
      <path id="Path_234" data-name="Path 234" d="M243.934,135.946a11.73,11.73,0,0,0,13.459-19,12.181,12.181,0,0,0-1.729-23.117,14.6,14.6,0,0,0-15.577-19.6,16.418,16.418,0,0,0-18.443-8.256A11.667,11.667,0,0,0,204.43,80.18" transform="translate(137.586 -12.257)" fill="#263238"/>
      <path id="Path_235" data-name="Path 235" d="M245.688,72.422l2.368,1A49.738,49.738,0,0,1,275.8,134.9c-7.617,22.883-16.325,48.056-21.512,59.863-10.733,24.425-36.933,17.8-36.933,17.8l-10.468,30.438L148.05,215.826l40.2-109.289C196.9,80.055,219.487,63.045,245.688,72.422Z" transform="translate(106.641 -9.032)" fill="#ae7461"/>
      <path id="Path_236" data-name="Path 236" d="M202.775,169.771a64.863,64.863,0,0,1-28.195-23.1s.4,20.967,25.858,29.176Z" transform="translate(121.437 33.829)" fill="#6f4439"/>
      <path id="Path_237" data-name="Path 237" d="M220.491,127.944a3.816,3.816,0,0,1-4.891,2.1,3.645,3.645,0,0,1-2.274-4.673,3.816,3.816,0,0,1,4.891-2.1,3.645,3.645,0,0,1,2.274,4.673Z" transform="translate(142.929 20.637)" fill="#263238"/>
      <path id="Path_238" data-name="Path 238" d="M228.33,120.56c-.623.265-2.446-2.819-6.231-4.424s-7.352-.872-7.555-1.558c-.125-.3.67-.935,2.259-1.293a10.515,10.515,0,0,1,6.231.639,10.125,10.125,0,0,1,4.673,4.1C228.6,119.454,228.626,120.451,228.33,120.56Z" transform="translate(143.719 15.092)" fill="#263238"/>
      <path id="Path_239" data-name="Path 239" d="M198.965,118.094a3.8,3.8,0,0,1-4.876,2.1,3.645,3.645,0,0,1-2.274-4.673,3.8,3.8,0,0,1,4.876-2.1,3.645,3.645,0,0,1,2.274,4.673Z" transform="translate(130.932 15.144)" fill="#263238"/>
      <path id="Path_240" data-name="Path 240" d="M204.319,110.89c-.639.265-2.461-2.835-6.231-4.424s-7.337-.872-7.555-1.558c-.109-.3.67-.935,2.259-1.293a10.514,10.514,0,0,1,6.231.639,10.047,10.047,0,0,1,4.673,4.1C204.569,109.784,204.615,110.765,204.319,110.89Z" transform="translate(130.329 9.699)" fill="#263238"/>
      <path id="Path_241" data-name="Path 241" d="M200.531,141.387c.078-.218,2.6.374,6.6,1.558,1.012.312,2.009.514,2.446,0a5.452,5.452,0,0,0,.576-3.115c0-2.726.171-5.561.265-8.552.483-12.135,1.262-21.948,1.76-21.917s.483,9.876,0,22.011c-.14,2.975-.265,5.826-.4,8.536a6.044,6.044,0,0,1-1.106,4,2.633,2.633,0,0,1-2.181.732,7.26,7.26,0,0,1-1.729-.467C202.82,142.6,200.453,141.6,200.531,141.387Z" transform="translate(135.909 13.02)" fill="#263238"/>
      <path id="Path_242" data-name="Path 242" d="M210.856,102.829c-.9.732-3.692-1.667-7.633-3.489s-7.555-2.586-7.493-3.739c0-.545,1.106-1.106,2.866-1.262a12.991,12.991,0,0,1,6.511,1.293,12.462,12.462,0,0,1,5.063,4.221C211.074,101.3,211.276,102.455,210.856,102.829Z" transform="translate(133.232 4.629)" fill="#263238"/>
      <path id="Path_243" data-name="Path 243" d="M233.171,110.947c-1.153.514-3.894-1.7-7.617-3.334s-7.166-2.368-7.508-3.567c-.14-.576.717-1.231,2.446-1.449a14.139,14.139,0,0,1,12.213,5.561C233.654,109.608,233.7,110.667,233.171,110.947Z" transform="translate(145.67 9.221)" fill="#263238"/>
      <path id="Path_244" data-name="Path 244" d="M267.693,124.11s0-18.147-5.841-24.923c-7.134-8.162-15.188,0-22.727-5.966s-14.347-13.848-25.9-10.9c-12.649,3.115-10.328,10.156-15.577,20.811-21.185,43.18-34.566,52.246-28.039,30.453.717-2.383-4.844-6.9-1.682-16.932,4.081-13.007,10.047-28.382,16.605-36.061,5.53-6.48,11.979-9.829,22.042-12.275,15.889-3.863,32.541,2.991,43.3,8.895S276.9,105.278,267.693,124.11Z" transform="translate(117.176 -10.5)" fill="#263238"/>
      <path id="Path_245" data-name="Path 245" d="M177.239,113.439a7.228,7.228,0,0,0-4.471-9.486c-4.767-1.558-10.9-1.075-14.689,8.521-6.589,17.026,11.854,20.141,12.072,19.658S174.544,120.589,177.239,113.439Z" transform="translate(111.441 9.627)" fill="#ae7461"/>
      <path id="Path_246" data-name="Path 246" d="M166.649,122.07c0-.093-.374,0-.966.125a3.193,3.193,0,0,1-2.243-.826c-1.558-1.355-1.947-4.8-.841-7.9a10.78,10.78,0,0,1,2.477-3.925,3.692,3.692,0,0,1,3.115-1.4,1.558,1.558,0,0,1,1.433,1.558c0,.561-.187.857-.109.919s.467-.14.608-.9a1.994,1.994,0,0,0-.265-1.324,2.352,2.352,0,0,0-1.464-1.059,4.486,4.486,0,0,0-4.128,1.433,11,11,0,0,0-2.866,4.346c-1.215,3.474-.7,7.368,1.558,9.019a3.4,3.4,0,0,0,2.882.608C166.462,122.429,166.7,122.117,166.649,122.07Z" transform="translate(113.729 11.853)" fill="#6f4439"/>
      <path id="Path_247" data-name="Path 247" d="M183.1,103.551a17.337,17.337,0,0,0,5.655,6.231c2.524,1.386,6.231,1.153,7.789-1.262.685-1.09.981-2.57,2.134-3.115s2.929.374,4.268,1.122c4.673,2.586,12.664-.374,15.92-4.673a4.751,4.751,0,0,0,5.343,3.692,16.963,16.963,0,0,0,5.577-1.869c2.2-1.059,4.907-1.7,6.994-.436,1.168.7,2.009,1.932,3.3,2.352,2.29.748,4.471-1.371,5.732-3.427s2.617-4.486,4.985-4.891,4.175,1.231,6.075,2.383,4.673,1.807,6.091,0a4.346,4.346,0,0,0,.545-3.365,11.823,11.823,0,0,0-11.091-9.58,16.013,16.013,0,0,0-25.874-14.362,16.263,16.263,0,0,0-26.31-4.626A11.776,11.776,0,0,0,181.313,78.3c-3.754.452-7.617,2.352-9.144,5.795s.374,8.365,4.112,8.863a6.527,6.527,0,0,0,7.789,10.406" transform="translate(119.797 -12.885)" fill="#263238"/>
      <path id="Path_248" data-name="Path 248" d="M251.268,83.445a.686.686,0,0,1-.125.312c-.125.2-.265.5-.5.857a11.682,11.682,0,0,1-2.586,2.71,13.054,13.054,0,0,1-5.421,2.383,12.119,12.119,0,0,1-7.789-.95l.436-.249a6.5,6.5,0,0,1-2.305,4.486,18.942,18.942,0,0,1-4.673,2.913,13.721,13.721,0,0,1-2.695,1.122,6.465,6.465,0,0,1-3.115-.14,6.667,6.667,0,0,1-4.58-4.237l.7.093a13.739,13.739,0,0,1-9.05,6.449,9.954,9.954,0,0,1-6.231-.545,17.806,17.806,0,0,1-4.891-3.5h.545a14.394,14.394,0,0,1-6.231,3.489,7.648,7.648,0,0,1-6.527-.888,10.032,10.032,0,0,1-4.05-10.265l.312.343a9.455,9.455,0,0,1-6.137-1.558,10.094,10.094,0,0,1-3.256-3.5,9.005,9.005,0,0,1-1.012-2.851,5.417,5.417,0,0,1,0-1.059,11.278,11.278,0,0,0,1.34,3.754,10.234,10.234,0,0,0,3.24,3.287,9.05,9.05,0,0,0,5.826,1.418h.389l-.093.389a9.455,9.455,0,0,0,3.894,9.564,6.916,6.916,0,0,0,5.951.748,13.552,13.552,0,0,0,5.81-3.349l.265-.265.265.249a17.679,17.679,0,0,0,4.673,3.349,9.346,9.346,0,0,0,5.81.483A12.929,12.929,0,0,0,218,92.4l.452-.748.249.841a5.966,5.966,0,0,0,4.05,3.739,5.608,5.608,0,0,0,2.726.14,13.442,13.442,0,0,0,2.539-1.044,18.3,18.3,0,0,0,4.486-2.757,6,6,0,0,0,2.15-4.05v-.452l.4.2A11.792,11.792,0,0,0,242.4,89.3a13.194,13.194,0,0,0,5.3-2.2,14.019,14.019,0,0,0,3.567-3.661Z" transform="translate(120.033 -3.996)" fill="#455a64"/>
      <path id="Path_249" data-name="Path 249" d="M200.108,143.513c.171-.67-4.33-1.558-6.76-6.044s-1.013-9.175-1.558-9.346c-.265-.109-1.075.9-1.558,2.913a11.418,11.418,0,0,0,1.09,7.789,10.032,10.032,0,0,0,5.732,4.767C198.862,144.089,200.077,143.809,200.108,143.513Z" transform="translate(130.023 23.48)" fill="#263238"/>
      <path id="Path_250" data-name="Path 250" d="M179.466,145.349l25.142,3.3c2.087,18.179,31.279,42.479,56.639,30.7L303.3,215.836c-1.122,1.09-25.095,53.4-50.408,101.439-6.87,13.022-14.845,24.923-20.344,35.937l-2.71,36.155c-42.931,9.892-90.877,2.866-124.4-16.87-15.39-9.268-29.721-19.97-41.794-33.226l46.436-157.142s-1.153-27.151,24.923-34.27a95.38,95.38,0,0,1,29.223-3.411C166.88,144.492,175.323,144.913,179.466,145.349Z" transform="translate(59.569 32.548)" fill="#2a9f4b"/>
      <path id="Path_251" data-name="Path 251" d="M202.881,181.39s31.559,2.43,38.756,28.039-.794,121.969-.794,121.969l45.174,19.362-7.15,33.6s-44.566,4.408-73.368-2.8-11.792-151.644-11.792-151.644Z" transform="translate(129.322 53.193)" fill="#2a9f4b"/>
      <path id="Path_252" data-name="Path 252" d="M236.991,210a10.083,10.083,0,0,1-.639,1.137l-1.9,3.193c-1.682,2.851-4.066,6.838-6.994,11.761l-23.148,38.74-23.366,38.663-7.134,11.667c-.826,1.324-1.48,2.368-1.963,3.115a6.468,6.468,0,0,1-.748,1.059,9.674,9.674,0,0,1,.607-1.153l1.838-3.224,6.9-11.807,23.21-38.631c9.066-15.125,17.322-28.771,23.366-38.616,3.022-4.922,5.483-8.91,7.212-11.636.872-1.355,1.558-2.415,2.025-3.115A10.257,10.257,0,0,1,236.991,210Z" transform="translate(119.496 69.149)" fill="#263238"/>
      <path id="Path_253" data-name="Path 253" d="M112.113,170.286s-79.148,107.186-63.555,131.8c25.484,40.22,139.556,18.989,139.556,18.989l-2.57-53.445-63.633.732,35.547-64.972,21.808-58.57C151.82,143.088,130.775,145.035,112.113,170.286Z" transform="translate(50.018 32.535)" fill="#2a9f4b"/>
      <path id="Path_254" data-name="Path 254" d="M115.6,199.18a6.776,6.776,0,0,1-.623,1.558c-.452,1-1.122,2.43-1.978,4.175-1.713,3.52-4.175,8.318-7.025,13.552s-5.514,9.923-7.524,13.272c-1.013,1.667-1.838,3.022-2.43,3.941a6.466,6.466,0,0,1-1.013,1.371,7.133,7.133,0,0,1,.732-1.558l2.212-4.05,7.321-13.381,7.212-13.412,2.212-4.066a7.481,7.481,0,0,1,.9-1.4Z" transform="translate(77.059 63.115)" fill="#263238"/>
      <path id="Path_255" data-name="Path 255" d="M109.513,217.869,326.971,439.75l53.476-48.461L158.457,169.455a34.41,34.41,0,0,0-48.087-.545h0a34.394,34.394,0,0,0-.857,48.959Z" transform="translate(79.675 40.921)" fill="#455a64"/>
      <path id="Path_256" data-name="Path 256" d="M299.076,308.26l12.306,56.514a7.1,7.1,0,0,1-8.91,8.334L245.6,356.721Z" transform="translate(161.046 123.95)" fill="#f5f5f5"/>
      <path id="Path_257" data-name="Path 257" d="M291.707,340.77l1.558,7.165a6.433,6.433,0,0,1-8.24,7.493l-6.464-2.056Z" transform="translate(179.428 142.082)" fill="#2a9f4b"/>
      <path id="Path_258" data-name="Path 258" d="M110.37,168.909h0A34.41,34.41,0,0,1,156,167.227l-48.57,48.289a.608.608,0,0,1-.125-.156l-.171-.2A34.394,34.394,0,0,1,110.37,168.909Z" transform="translate(79.676 40.922)" fill="#263238"/>
      <path id="Path_259" data-name="Path 259" d="M110.4,168.892s-.5.576-1.558,1.651l-.841.9c-.28.343-.576.763-.9,1.184l-1.075,1.417c-.374.5-.685,1.106-1.059,1.714a31.435,31.435,0,0,0-3.988,9.767,35.469,35.469,0,0,0,7.119,30.578c2.134,2.523,4.673,4.922,7.166,7.508l7.789,8.007,36.933,37.588c27.338,27.883,59.91,61.063,96.064,97.918l56.7,57.838,7.415,7.555,3.723,3.785a18.691,18.691,0,0,0,4.221,3.115,22.088,22.088,0,0,0,4.938,1.854l5.172,1.558,10.421,2.991,21.06,6.075,10.624,3.115,2.679.763a8.566,8.566,0,0,0,2.6.467,6.714,6.714,0,0,0,4.673-1.994,6.62,6.62,0,0,0,1.963-4.673,12.716,12.716,0,0,0-.405-2.664l-.452-2.975c-.794-3.614-1.558-7.228-2.352-10.811q-2.352-10.795-4.673-21.419c-.763-3.552-1.558-7.088-2.305-10.592-.374-1.76-.763-3.52-1.137-5.281a14.02,14.02,0,0,0-1.916-4.829,22.823,22.823,0,0,0-3.474-3.925l-3.77-3.77-7.477-7.477-57.293-57.277L210,221.527l-37.229-37.292c-5.5-5.468-10.546-10.639-15.3-15.266l-1.823-1.651-1.916-1.418a15.794,15.794,0,0,0-1.963-1.293c-.67-.374-1.293-.81-1.978-1.137a31.372,31.372,0,0,0-4.034-1.76c-.685-.234-1.324-.514-2.009-.7l-1.994-.514a33.756,33.756,0,0,0-14.347-.28c-1.013.249-2.009.4-2.929.685l-2.648.857a36.921,36.921,0,0,0-4.346,2.041c-.623.343-1.215.654-1.76.981l-1.449,1-1.246.857-.95.794c-1.122.95-1.713,1.418-1.713,1.418s.561-.514,1.667-1.558l.935-.81,1.231-.872,1.449-1.028,1.76-1.012a38.412,38.412,0,0,1,4.362-2.072l2.648-.872c.919-.3,1.932-.467,2.944-.717a33.912,33.912,0,0,1,14.456.2l2.025.514c.685.187,1.34.467,2.025.685a35.825,35.825,0,0,1,4.1,1.776c.685.327,1.324.763,1.994,1.153a15.993,15.993,0,0,1,1.994,1.277l1.947,1.449,1.838,1.651c4.782,4.673,9.845,9.767,15.359,15.219l37.385,37.214,97.108,96.906L364.9,375.4l7.477,7.477,3.77,3.77a24.322,24.322,0,0,1,3.6,4.05,14.908,14.908,0,0,1,2.009,5.109c.389,1.745.763,3.5,1.153,5.265q1.137,5.265,2.305,10.592,2.321,10.624,4.673,21.419c.795,3.583,1.558,7.2,2.368,10.811l.592,2.71a13.663,13.663,0,0,1,.421,2.835,7.555,7.555,0,0,1-7.477,7.539,9.52,9.52,0,0,1-2.851-.5l-2.664-.763L369.632,452.6l-21.06-6.075-10.406-3.006-5.187-1.558a22.069,22.069,0,0,1-5.078-1.916,19.442,19.442,0,0,1-4.408-3.116l-3.77-3.894-7.4-7.555L255.638,367.61l-95.955-98.043-36.84-37.634-7.789-8.022c-2.508-2.6-5.016-4.985-7.165-7.555a35.656,35.656,0,0,1-7.056-30.874,31.731,31.731,0,0,1,4.081-9.814c.389-.608.7-1.2,1.09-1.714l1.075-1.4c.343-.421.639-.826.935-1.184l.872-.888C109.852,169.422,110.4,168.892,110.4,168.892Z" transform="translate(79.758 40.83)" fill="#263238"/>
      <path id="Path_260" data-name="Path 260" d="M240.065,288.551a13.786,13.786,0,0,1,3.6-4.922,73.228,73.228,0,0,0,5.468-5.748l9.6-8.926a5.873,5.873,0,0,1,7.477,7.789c1.854-.654,2.57-1.558,4.486-1.059a6.231,6.231,0,0,1,4.455,3.536,4.486,4.486,0,0,1-1.4,5.265,7.29,7.29,0,0,1,7.648,9.58,7.788,7.788,0,0,1-1.277,2.383,3.208,3.208,0,0,1-.685.763,1.558,1.558,0,0,1-.452.14c-.732.125-1.464.109-2.2.28l-.81.218a13.834,13.834,0,0,0-3.443,1.682,13.936,13.936,0,0,1-1.48,1.028,8.879,8.879,0,0,1-1.153.249,18.179,18.179,0,0,0-6.324,4,14.3,14.3,0,0,1-7.181,3.77c-2.726.28-5.857-1.558-5.982-4.268a3.583,3.583,0,0,1-4.673.249,5.219,5.219,0,0,1-1.729-4.673,9.782,9.782,0,0,1,2.181-4.673,3.957,3.957,0,0,1-5.436-.795,6.075,6.075,0,0,1-.685-5.873Z" transform="translate(157.702 101.819)" fill="#ae7461"/>
      <path id="Path_261" data-name="Path 261" d="M275.686,291.194a5.888,5.888,0,0,1,1.558,4.673c-.374,1.963-2.57,3.988-4.253,5.078-1.776-1.558-2.586-2.508-4.362-4.1-.374-.327-.514-.732-1-.888-1.277-.389-3.225,1.324-4.471,1.729a4.5,4.5,0,0,1-5.405-3.038,6.091,6.091,0,0,1,2.072-6.231,9.346,9.346,0,0,1,6.449-1.931A13.008,13.008,0,0,1,275.686,291.194Z" transform="translate(167.722 111.793)" fill="#ae7461"/>
      <path id="Path_262" data-name="Path 262" d="M270.4,278.536c-.28-.327-5.841,3.925-12.462,9.518s-11.7,10.406-11.418,10.748,5.857-3.925,12.462-9.533S270.637,278.879,270.4,278.536Z" transform="translate(161.555 107.363)" fill="#6f4439"/>
      <path id="Path_263" data-name="Path 263" d="M264.381,273.628c-.234-.343-5.655,3.115-11.465,8.4s-9.751,10.374-9.44,10.655,4.751-4.253,10.5-9.471S264.661,274,264.381,273.628Z" transform="translate(159.852 104.623)" fill="#6f4439"/>
      <path id="Path_264" data-name="Path 264" d="M258.141,268.82c-.265-.358-4.673,2.726-9.206,7.29s-8.085,8.458-7.789,8.77,4.33-3.115,8.91-7.633S258.406,269.116,258.141,268.82Z" transform="translate(158.552 101.938)" fill="#6f4439"/>
      <path id="Path_265" data-name="Path 265" d="M272.807,289.215c.156-.109-.327-1.153-1.9-1.994a8.785,8.785,0,0,0-6.62-.358,17.508,17.508,0,0,0-5.779,3.115c-1.433,1.324-1.012,2.788-.794,2.664s.28-1.028,1.558-1.791a30.265,30.265,0,0,1,5.514-2.414,9.533,9.533,0,0,1,5.732-.14C271.888,288.7,272.635,289.386,272.807,289.215Z" transform="translate(167.673 111.748)" fill="#6f4439"/>
      <path id="Path_266" data-name="Path 266" d="M135.85,235.384l21.216-.234s9.8-11.917,16.325-16.278,7.617-13.054,11.979-12.462,7.617,8.131,4.346,12.462-5.436,7.088-5.436,7.088,21.294-11.465,28.989-11.184c6.651.265,4.673,4.1,4.673,4.1a16.138,16.138,0,0,1,11.7,2.414c5.452,3.816,1.371,7.929,1.371,7.929s7.586-.156,9.222,5.281,0,6.7,0,6.7,8.708,1.636,5.436,9.253-31,16.325-47.339,17.96-60.143,8.318-60.143,8.318Z" transform="translate(99.837 67.131)" fill="#ae7461"/>
      <path id="Path_267" data-name="Path 267" d="M60.39,273.614c39.566,7.259,79.272,9.751,119.944,2.57l-2.4-50.314-63.757-2.43-25.624,5.623" transform="translate(57.751 76.645)" fill="#2a9f4b"/>
      <path id="Path_268" data-name="Path 268" d="M88.554,229.167l.436-.125,1.277-.327,5.016-1.153,18.848-4.253h0l63.757,2.274h.343v.358c.623,12.555,1.293,26.232,1.994,40.5.156,3.365.327,6.714.483,9.845v.358h-.358A306.871,306.871,0,0,1,94.987,278.9c-10.811-1.153-19.456-2.492-25.406-3.52-2.975-.5-5.265-.966-6.823-1.246l-1.776-.358-.592-.14a4.494,4.494,0,0,1,.608,0l1.776.28,6.854,1.106c5.95.935,14.611,2.181,25.406,3.271a313.1,313.1,0,0,0,85.269-2.539l-.327.405c-.156-3.115-.327-6.465-.483-9.845-.685-14.206-1.34-27.883-1.947-40.5l.374.374-63.742-2.57h0l-18.833,4.19L90.3,228.855l-1.293.249a2.465,2.465,0,0,1-.452.062Z" transform="translate(57.751 76.572)" fill="#263238"/>
    </g>
    <g id="freepik--speech-bubble-1--inject-88" transform="translate(122.397 64.506)">
      <path id="Path_269" data-name="Path 269" d="M172.365,159.6l-16.029-5.982A54.52,54.52,0,1,1,170.9,140.532h0Z" transform="translate(-72.924 -52.314)" fill="#fff"/>
      <path id="Path_270" data-name="Path 270" d="M172.484,159.722a9.784,9.784,0,0,0-.125-1.277c-.125-.841-.171-2.056-.312-3.661-.265-3.224-.67-7.976-1.184-14.144l.28.125h0a.156.156,0,0,1-.234,0,.171.171,0,0,1,0-.2,54.629,54.629,0,0,0,10.608-24.69,54.019,54.019,0,0,0,.67-8.381,61.8,61.8,0,0,0-.779-8.972,54.177,54.177,0,0,0-103.931-10.9,55.112,55.112,0,0,0-3.489,24.69A53.445,53.445,0,0,0,81.2,134.642a54.426,54.426,0,0,0,32.291,24.923l2.243.592a14.359,14.359,0,0,0,2.243.467l4.424.685a77.9,77.9,0,0,0,8.458.218,54.52,54.52,0,0,0,25.547-7.882.14.14,0,0,1,.14,0l11.839,4.533,3.115,1.184,1.059.421-1.013-.358-3.115-1.09-12.026-4.377h.14a54.317,54.317,0,0,1-25.671,8.1,79.44,79.44,0,0,1-8.552-.171l-4.455-.67a16.368,16.368,0,0,1-2.274-.467l-2.274-.592a54.769,54.769,0,0,1-32.712-25.064,54.006,54.006,0,0,1-7.352-22.634,56.078,56.078,0,0,1,3.52-25.032A54.52,54.52,0,0,1,92,65.776a27.538,27.538,0,0,1,2.586-2.087l2.664-1.978,2.819-1.7a21.543,21.543,0,0,1,2.866-1.558l2.944-1.418c.966-.5,2.025-.779,3.022-1.184a26.132,26.132,0,0,1,3.115-1.075l3.115-.794a54.193,54.193,0,0,1,24.783-.218,54.769,54.769,0,0,1,42.105,44.722,60.965,60.965,0,0,1,.748,9.066,52.964,52.964,0,0,1-.748,8.38,54.333,54.333,0,0,1-10.9,24.814l-.234-.234h0a.156.156,0,0,1,.234,0,.172.172,0,0,1,0,.093c.421,6.231.763,11.013.981,14.269.093,1.558.187,2.788.234,3.63A6.085,6.085,0,0,0,172.484,159.722Z" transform="translate(-73.042 -52.437)" fill="#263238"/>
      <path id="Path_271" data-name="Path 271" d="M106.31,77.529a22.8,22.8,0,0,1,5.561-2.414l1.137-5.5,9.346-.156,1.34,5.452a22.462,22.462,0,0,1,5.623,2.212l4.673-3.115,6.683,6.449-2.913,4.8a22.961,22.961,0,0,1,2.414,5.545l5.5,1.153.156,9.346-5.452,1.324a22.337,22.337,0,0,1-2.212,5.639l3.115,4.673-6.433,6.683-4.8-2.913a22.805,22.805,0,0,1-5.561,2.414l-1.137,5.483-9.346.171-1.324-5.452a22.946,22.946,0,0,1-5.639-2.212l-4.673,3.115-6.683-6.449,2.913-4.8a22.432,22.432,0,0,1-2.414-5.545L90.7,102.3,90.53,92.95l5.452-1.34a22.835,22.835,0,0,1,2.212-5.623l-3.115-4.673,6.449-6.683,4.782,2.913Zm4.954,12.353a9.954,9.954,0,1,0,14.019-.249,9.954,9.954,0,0,0-14.019.249Z" transform="translate(-63.288 -42.943)" fill="#455a64"/>
    </g>
  </g>
</svg>
